<?xml version="1.0" standalone="no"?>
<!DOCTYPE svg PUBLIC "-//W3C//DTD SVG 1.1//EN" "http://www.w3.org/Graphics/SVG/1.1/DTD/svg11.dtd" >
<svg xmlns="http://www.w3.org/2000/svg" xmlns:xlink="http://www.w3.org/1999/xlink" version="1.1">
<metadata></metadata>
<defs>
<font id="relay-lightregular" horiz-adv-x="1075" >
<font-face units-per-em="2048" ascent="1638" descent="-410" />
<missing-glyph horiz-adv-x="522" />
<glyph horiz-adv-x="0" />
<glyph unicode="&#xd;" horiz-adv-x="1024" />
<glyph unicode=" "  horiz-adv-x="522" />
<glyph unicode="&#x09;" horiz-adv-x="522" />
<glyph unicode="&#xa0;" horiz-adv-x="522" />
<glyph unicode="!" horiz-adv-x="702" d="M248 82q0 -41 30.5 -70.5t71.5 -29.5t72 29.5t31 70.5t-31 71.5t-72 30.5t-71.5 -30.5t-30.5 -71.5zM291 381h123v1063h-123v-1063z" />
<glyph unicode="&#x22;" horiz-adv-x="866" d="M211 934h119v510h-119v-510zM537 934h118v510h-118v-510z" />
<glyph unicode="#" horiz-adv-x="1161" d="M74 487h221l-76 -487h115l76 487h272l-76 -487h115l76 487h290v109h-274l37 242h237v108h-221l76 488h-115l-75 -488h-273l76 488h-115l-75 -488h-291v-108h274l-37 -242h-237v-109zM426 596l37 242h272l-37 -242h-272z" />
<glyph unicode="$" horiz-adv-x="1040" d="M86 90q66 -35 170 -66.5t225 -35.5v-164h111v168q178 18 270 112.5t92 239.5q0 88 -31.5 153.5t-83 117t-116 91t-131.5 76.5v543q57 -4 120.5 -18.5t127.5 -36.5l37 110q-31 14 -103 36t-182 26v168h-111v-170q-164 -16 -251 -103.5t-87 -222.5q0 -80 29 -141.5 t77 -110.5t108.5 -88t123.5 -74v-596q-102 6 -198.5 36t-147.5 57zM264 1114q0 100 56.5 149.5t160.5 59.5v-481q-90 53 -153.5 115.5t-63.5 156.5zM592 109v532q49 -29 93 -58.5t77 -65.5t52.5 -78t19.5 -95q0 -98 -61.5 -158.5t-180.5 -76.5z" />
<glyph unicode="%" horiz-adv-x="1845" d="M100 985q0 -98 23.5 -182t66.5 -145.5t103.5 -95.5t136.5 -34t136.5 34t103.5 95.5t66.5 145.5t23.5 182t-23.5 182t-66.5 145.5t-103.5 96.5t-136.5 35t-136.5 -35t-103.5 -96.5t-66.5 -145.5t-23.5 -182zM215 985q0 72 13.5 134.5t40 109.5t67.5 74.5t94 27.5t94 -27.5 t67.5 -74.5t40 -109.5t13.5 -134.5t-13.5 -134.5t-40 -109.5t-67.5 -73.5t-94 -26.5t-94 26.5t-67.5 73.5t-40 109.5t-13.5 134.5zM502 0h112l729 1434h-112zM1085 440q0 -98 24 -182t67 -145.5t103 -95t136 -33.5t136.5 33.5t103.5 95t66.5 145.5t23.5 182t-23.5 182.5 t-66.5 145.5t-103.5 96t-136.5 35t-136 -35t-103 -96t-67 -145t-24 -183zM1200 440q0 72 13.5 134.5t40 109.5t67.5 74.5t94 27.5t94 -27.5t68 -74.5t40 -109.5t13 -134.5t-13 -134t-40 -109t-68 -74t-94 -27t-94 27t-67.5 74t-40 109.5t-13.5 133.5z" />
<glyph unicode="&#x26;" horiz-adv-x="1388" d="M111 362q0 -86 25.5 -156.5t72.5 -120.5t113.5 -77.5t148.5 -27.5q160 0 280.5 74.5t213.5 199.5l159 -254h142l-230 365q70 119 122 258t93 286l-112 29q-39 -133 -81 -249t-91 -214l-535 848h565v121h-772v-19l291 -460q-92 -49 -168 -117t-128 -146.5t-80.5 -165.5 t-28.5 -174zM236 358q0 70 21.5 141.5t64.5 140.5t106.5 129t144.5 105l326 -518q-80 -123 -181.5 -190.5t-236.5 -67.5q-111 0 -178 69t-67 191z" />
<glyph unicode="'" horiz-adv-x="540" d="M211 934h119v510h-119v-510z" />
<glyph unicode="(" horiz-adv-x="741" d="M164 721q0 -154 28.5 -289t75.5 -248.5t108 -203t122 -152.5l86 76q-55 57 -109.5 138t-95.5 184.5t-66.5 227.5t-25.5 267t25.5 267t66.5 226.5t94 184.5t109 139l-84 76q-61 -63 -122 -152.5t-108 -202t-75.5 -247.5t-28.5 -291z" />
<glyph unicode=")" horiz-adv-x="741" d="M158 1538q55 -57 109.5 -138t95 -184.5t66.5 -227.5t26 -267t-26 -267t-66.5 -226.5t-94 -184.5t-108.5 -139l84 -76q61 63 121.5 152.5t107.5 202t76 247.5t29 291q0 154 -29 289t-76 248.5t-107.5 202.5t-121.5 153z" />
<glyph unicode="*" horiz-adv-x="1044" d="M63 1092l371 -121l-233 -320l88 -61l229 315l234 -315l86 65l-230 316l373 121l-35 102l-371 -121v391h-108v-391l-373 121z" />
<glyph unicode="+" horiz-adv-x="1138" d="M182 649h328v-330h119v330h327v115h-327v330h-119v-330h-328v-115z" />
<glyph unicode="," horiz-adv-x="557" d="M133 -322h94l172 494h-151z" />
<glyph unicode="-" horiz-adv-x="1056" d="M182 547h692v115h-692v-115z" />
<glyph unicode="." horiz-adv-x="557" d="M176 82q0 -41 31 -70.5t72 -29.5t71.5 29.5t30.5 70.5t-31 71.5t-71 30.5q-41 0 -72 -30.5t-31 -71.5z" />
<glyph unicode="/" horiz-adv-x="937" d="M84 0h117l653 1444h-117z" />
<glyph unicode="0" horiz-adv-x="1294" d="M133 715q0 -158 36 -291t102.5 -229.5t161.5 -151.5t214 -55t214 55t162 151.5t102.5 229.5t35.5 291q0 156 -35.5 290t-102.5 231t-162 152.5t-214 55.5t-214 -55.5t-161.5 -152.5t-102.5 -231.5t-36 -289.5zM256 715q0 127 25.5 237.5t75 193.5t122 131t168.5 48 t169 -48t122 -131t74.5 -193.5t25.5 -237.5t-25.5 -237.5t-74.5 -193.5t-122 -130.5t-169 -47.5t-168.5 47.5t-122 130.5t-75 193.5t-25.5 237.5z" />
<glyph unicode="1" horiz-adv-x="722" d="M109 1317h225v-1317h121v1434h-346v-117z" />
<glyph unicode="2" horiz-adv-x="1009" d="M47 0h883v117h-649l204 243q82 98 148.5 186.5t114 173.5t74 169t26.5 170q0 100 -33 174t-93 120t-144 68.5t-189 22.5q-104 0 -194.5 -20.5t-128.5 -37.5l32 -110q53 18 131 33.5t156 15.5q164 0 252 -63.5t88 -204.5t-82 -287.5t-235 -327.5l-361 -428v-14z" />
<glyph unicode="3" horiz-adv-x="999" d="M72 1317h540l-313 -451v-14q66 -6 146.5 -22.5t152.5 -54.5t121 -106.5t49 -181.5q0 -119 -56.5 -191.5t-150.5 -114.5t-219 -56t-260 -16l6 -119q174 2 321.5 26.5t254 81t167 151.5t60.5 238q0 86 -23.5 152t-60.5 114t-83 79.5t-91 52t-84 31t-64 16.5l338 485v17 h-751v-117z" />
<glyph unicode="4" horiz-adv-x="1161" d="M31 342h727v-342h121v342h217v117h-217v985h-23l-825 -1077v-25zM240 459l518 676v-676h-518z" />
<glyph unicode="5" horiz-adv-x="1034" d="M113 109l6 -119q174 2 321.5 26.5t254 81t167 151.5t60.5 238q0 133 -53.5 222.5t-143.5 145.5t-213 84t-260 38l20 340h572v117h-680l-35 -566q147 -4 270 -21.5t212 -60.5t138.5 -114.5t49.5 -184.5q0 -119 -56.5 -191.5t-150.5 -114.5t-219 -56t-260 -16z" />
<glyph unicode="6" horiz-adv-x="1167" d="M102 516q0 -115 41 -211t111 -166.5t161 -110.5t193 -40q88 0 174 30.5t154 89t108.5 144.5t40.5 199q0 137 -47 226t-117.5 140t-152.5 70.5t-154 19.5q-100 0 -190 -28.5t-158 -67.5q47 145 161 278.5t321 268.5l-66 98q-154 -100 -264.5 -205.5t-180 -221.5 t-102.5 -243t-33 -270zM225 518q0 37 2 73t6 71q66 53 162.5 89.5t204.5 36.5q59 0 123.5 -15t118 -54t87.5 -104.5t34 -165.5q0 -90 -32 -155t-82 -107t-113.5 -61.5t-127.5 -19.5q-72 0 -140.5 28t-121.5 81t-87 129t-34 174z" />
<glyph unicode="7" horiz-adv-x="1009" d="M70 1317h700l-526 -1317h123l565 1415v19h-862v-117z" />
<glyph unicode="8" horiz-adv-x="1191" d="M102 403q0 -98 36 -177t101.5 -133t156.5 -83.5t200 -29.5q111 0 201 29.5t155.5 86t101.5 135t36 177.5q0 78 -23 141t-60.5 111.5t-89 81t-106.5 49.5q39 14 78 43.5t68.5 70.5t48 92.5t18.5 106.5q0 74 -28.5 137.5t-84 110.5t-135.5 74.5t-180 27.5t-180 -27.5 t-135.5 -75.5t-84 -112.5t-28.5 -138.5q0 -55 17.5 -104.5t47 -89.5t68.5 -70.5t82 -47.5q-49 -12 -99.5 -44.5t-90 -82t-65.5 -115t-26 -143.5zM225 410q0 74 28 133t78 100t117.5 62.5t147.5 21.5t147.5 -22.5t116.5 -63.5t78 -101.5t29 -133.5q0 -76 -30 -133.5 t-81 -96.5t-117.5 -58.5t-142.5 -19.5q-74 0 -141.5 20.5t-117.5 59.5t-81 97.5t-31 134.5zM291 1104q0 111 86 171t219 60q66 0 122 -16t97 -46t63.5 -74t22.5 -99t-23.5 -102.5t-64.5 -82t-96 -54t-121 -19.5t-122 20.5t-97 55t-63.5 83t-22.5 103.5z" />
<glyph unicode="9" horiz-adv-x="1167" d="M82 983q0 -137 47 -226t117.5 -140.5t152.5 -71t154 -19.5q100 0 190 29t158 68q-47 -145 -160.5 -278.5t-320.5 -268.5l65 -99q154 100 264.5 206t180 221.5t102.5 242.5t33 271q0 115 -41 211t-110.5 166.5t-162 110.5t-192.5 40q-90 0 -175 -31t-152.5 -89 t-108.5 -144t-41 -199zM205 985q0 90 31.5 154.5t82 106.5t114 61.5t126.5 19.5q70 0 139.5 -27.5t122.5 -81t87 -129t34 -174.5q0 -37 -2 -72.5t-6 -70.5q-66 -53 -162 -90t-205 -37q-59 0 -123.5 15.5t-118 54.5t-87 104.5t-33.5 165.5z" />
<glyph unicode=":" horiz-adv-x="557" d="M176 82q0 -41 31 -70.5t72 -29.5t71.5 29.5t30.5 70.5t-31 71.5t-71 30.5q-41 0 -72 -30.5t-31 -71.5zM176 831q0 -41 31 -70.5t72 -29.5t71.5 30t30.5 70q0 41 -31 72t-71 31q-41 0 -72 -31t-31 -72z" />
<glyph unicode=";" horiz-adv-x="557" d="M96 -322h94l172 494h-151zM176 831q0 -41 31 -70.5t72 -29.5t71.5 30t30.5 70q0 41 -31 72t-71 31q-41 0 -72 -31t-31 -72z" />
<glyph unicode="&#x3c;" horiz-adv-x="933" d="M174 707l551 -504v145l-401 365l401 368v146l-551 -506v-14z" />
<glyph unicode="=" horiz-adv-x="1155" d="M184 406h787v114h-787v-114zM184 846h787v115h-787v-115z" />
<glyph unicode="&#x3e;" horiz-adv-x="933" d="M209 203l551 508v12l-551 504v-146l401 -364l-401 -369v-145z" />
<glyph unicode="?" horiz-adv-x="1173" d="M178 1442l15 -117q33 4 72.5 8t92.5 4q80 0 168 -14t161 -52t120 -104.5t47 -171.5q0 -86 -36 -150.5t-97.5 -107.5t-142 -68.5t-170.5 -35.5v-287h122v191q76 14 155 47.5t143.5 89t106.5 135.5t42 188q0 141 -59.5 231.5t-149.5 140.5t-198.5 68.5t-207.5 18.5 q-53 0 -101 -5t-83 -9zM356 82q0 -41 31 -70.5t72 -29.5t71.5 29.5t30.5 70.5t-30.5 71.5t-71.5 30.5t-72 -30.5t-31 -71.5z" />
<glyph unicode="@" horiz-adv-x="1671" d="M129 541q0 -166 46 -313.5t137 -256t226.5 -172t313.5 -63.5q137 0 271 31.5t229 85.5l-39 86q-45 -25 -102.5 -43.5t-119 -30.5t-123 -19.5t-116.5 -7.5q-156 0 -271.5 56.5t-192.5 152.5t-114.5 223t-37.5 271q0 143 39.5 270t116.5 223t188.5 152.5t255.5 56.5 q143 0 254.5 -55t188.5 -150.5t118 -222.5t41 -270q0 -186 -55.5 -265t-153.5 -79q-47 0 -76 12t-43 39t-15 66.5t7 93.5l74 522h-80l-19 -53q-45 23 -97 38t-118 15q-96 0 -171 -36t-127 -100.5t-79.5 -155.5t-27.5 -200q0 -74 20.5 -135t60.5 -106t101 -71t141 -26 q61 0 132 20.5t124 47.5q27 -31 73 -49.5t118 -18.5q68 0 125 26t100 79t66.5 136t23.5 200q0 166 -49 312.5t-140 255t-222.5 171t-294.5 62.5q-164 0 -294 -63.5t-222.5 -172.5t-141.5 -256t-49 -313zM563 469q0 68 16.5 132.5t53.5 114.5t94 80.5t137 30.5q53 0 96.5 -9 t90.5 -25l-56 -390q-12 -81 0 -149q-51 -23 -99 -35t-101 -12q-66 0 -110 21.5t-70.5 58.5t-39 84t-12.5 98z" />
<glyph unicode="A" horiz-adv-x="1304" d="M61 0h129l132 334h657l131 -334h133l-577 1460h-27zM369 451l282 718l283 -718h-565z" />
<glyph unicode="B" horiz-adv-x="1234" d="M195 0h286q168 0 290 29.5t199 83t113.5 128t36.5 165.5q0 76 -24.5 134t-65.5 101t-96 71.5t-117 43.5q51 12 94 41.5t76 70.5t51.5 93.5t18.5 111.5q0 201 -150.5 286t-451.5 85h-260v-1444zM319 121v567h211q227 0 345 -69.5t118 -215.5q0 -141 -117.5 -211.5 t-373.5 -70.5h-183zM319 805v518h164q102 0 185.5 -11.5t141.5 -40t90 -76.5t32 -122q0 -129 -91 -198.5t-304 -69.5h-218z" />
<glyph unicode="C" horiz-adv-x="1202" d="M137 719q0 -199 59.5 -338t154.5 -227t217 -129t245 -41q78 0 157 15t126 38l-37 110q-29 -10 -98.5 -26.5t-147.5 -16.5q-109 0 -208 38t-174 115t-120 192.5t-45 271.5q0 154 44 270.5t118 193.5t172 115.5t207 38.5q25 0 56.5 -3t65.5 -7t66.5 -12t59.5 -17l37 113 q-29 12 -110 29.5t-177 17.5q-121 0 -241 -42t-215 -132t-153.5 -230.5t-58.5 -336.5z" />
<glyph unicode="D" horiz-adv-x="1372" d="M195 0h231q412 0 612.5 181t200.5 542q0 360 -200.5 540.5t-612.5 180.5h-231v-1444zM319 121v1202h168q317 0 471 -154.5t154 -449.5t-154.5 -446.5t-470.5 -151.5h-168z" />
<glyph unicode="E" horiz-adv-x="1101" d="M195 0h786v121h-662v541h510v120h-510v541h639v121h-763v-1444z" />
<glyph unicode="F" horiz-adv-x="1044" d="M195 0h124v651h529v121h-529v551h639v121h-763v-1444z" />
<glyph unicode="G" horiz-adv-x="1374" d="M137 719q0 -199 59.5 -338t154.5 -227t217 -129t245 -41q78 0 177.5 18t187.5 53v637h-123v-551q-39 -14 -101.5 -25.5t-140.5 -11.5q-109 0 -208 38t-174 115t-120 192.5t-45 271.5q0 154 44 270.5t123 193.5t185.5 115.5t229.5 38.5q72 0 148.5 -14t133.5 -33l37 113 q-53 23 -142 39t-179 16q-139 0 -267 -42t-226.5 -132t-157 -230.5t-58.5 -336.5z" />
<glyph unicode="H" horiz-adv-x="1423" d="M195 0h124v666h785v-666h125v1444h-125v-658h-785v658h-124v-1444z" />
<glyph unicode="I" horiz-adv-x="534" d="M205 0h125v1444h-125v-1444z" />
<glyph unicode="J" horiz-adv-x="751" d="M94 4q23 -4 61 -10t85 -6q61 0 119.5 16t103.5 58t72.5 117t27.5 194v1071h-125v-1065q0 -78 -12 -130t-36.5 -83t-62.5 -44t-89 -13q-59 0 -123 12z" />
<glyph unicode="K" horiz-adv-x="1230" d="M195 0h124v623l175 174l538 -797h148l-598 885l561 559h-152l-672 -672v672h-124v-1444z" />
<glyph unicode="L" horiz-adv-x="1052" d="M195 0h763v121h-639v1323h-124v-1444z" />
<glyph unicode="M" horiz-adv-x="1703" d="M152 0h116l76 1057l494 -1057h22l492 1057l78 -1057h122l-106 1460h-31l-563 -1210l-563 1210h-31z" />
<glyph unicode="N" horiz-adv-x="1415" d="M195 0h118v1139l883 -1151h25v1456h-119v-1139l-883 1151h-24v-1456z" />
<glyph unicode="O" horiz-adv-x="1531" d="M137 723q0 -164 47 -301t131 -235.5t200 -152.5t251 -54t251 54t199.5 152.5t131 235.5t47.5 301t-47.5 300t-131 234.5t-199.5 152.5t-251 54t-251 -54t-200 -152.5t-131 -234.5t-47 -300zM264 723q0 133 36 246.5t102.5 196.5t158.5 130t205 47t205 -47t158.5 -130 t102.5 -196.5t36 -246.5t-36 -248t-102.5 -197.5t-158.5 -130t-205 -47.5t-205 47.5t-158.5 130t-102.5 197.5t-36 248z" />
<glyph unicode="P" horiz-adv-x="1206" d="M195 0h124v498h119q340 0 506 121.5t166 353.5q0 229 -167 350t-523 121h-225v-1444zM319 618v705h127q279 0 409 -89t130 -263q0 -176 -129 -264.5t-410 -88.5h-127z" />
<glyph unicode="Q" horiz-adv-x="1531" d="M137 723q0 -164 47 -300t131 -234.5t200 -152.5t251 -54q123 0 227 43l154 -277h135l-184 334q137 92 217 258t80 383q0 164 -47.5 300t-131 234.5t-199.5 152.5t-251 54t-251 -54t-200 -152.5t-131 -234.5t-47 -300zM264 723q0 133 36 246.5t102.5 196.5t158.5 130 t205 47t205 -47t158.5 -130t102.5 -196.5t36 -246.5q0 -176 -60.5 -315.5t-169.5 -219.5l-151 279h-135l184 -336q-78 -31 -170 -31q-113 0 -205 47.5t-158.5 130t-102.5 197.5t-36 248z" />
<glyph unicode="R" horiz-adv-x="1294" d="M195 0h124v518h132q129 0 237 19l354 -537h148l-377 569q152 51 224.5 155.5t72.5 258.5q0 229 -163 345t-515 116h-237v-1444zM319 639v684h142q279 0 401.5 -84t122.5 -258t-121 -258t-403 -84h-142z" />
<glyph unicode="S" horiz-adv-x="1171" d="M96 90q78 -43 204 -78t261 -35q125 0 217 30t151.5 81t89.5 121t30 149q0 96 -35 164t-94.5 118t-136 88t-158.5 75q-68 29 -130.5 58.5t-110.5 66.5t-76.5 84t-28.5 110q0 111 81.5 168.5t231.5 57.5q70 0 156 -15.5t178 -50.5l37 117q-41 16 -134.5 41.5t-234.5 25.5 q-209 0 -324.5 -93t-115.5 -253q0 -92 33.5 -157.5t92 -114.5t134 -87t159.5 -75q68 -31 131.5 -61.5t111.5 -68.5t78 -86t30 -114q0 -123 -88 -191.5t-269 -68.5q-61 0 -121.5 10.5t-116 25.5t-102.5 33.5t-80 35.5z" />
<glyph unicode="T" horiz-adv-x="1202" d="M94 1323h445v-1323h125v1323h444v121h-1014v-121z" />
<glyph unicode="U" horiz-adv-x="1404" d="M188 530q0 -276 132 -415.5t380 -139.5q246 0 381.5 141.5t135.5 413.5v914h-121v-916q0 -219 -104.5 -326.5t-291.5 -107.5q-186 0 -286.5 107.5t-100.5 326.5v916h-125v-914z" />
<glyph unicode="V" horiz-adv-x="1304" d="M61 1444l578 -1460h27l577 1460h-129l-461 -1170l-458 1170h-134z" />
<glyph unicode="W" horiz-adv-x="1857" d="M61 1444l510 -1460h25l334 1099l336 -1099h24l510 1460h-123l-389 -1125l-342 1125h-26l-340 -1122l-392 1122h-127z" />
<glyph unicode="X" horiz-adv-x="1282" d="M92 0h137l406 655l414 -655h143l-477 756l430 688h-137l-361 -582l-366 582h-144l430 -682z" />
<glyph unicode="Y" horiz-adv-x="1288" d="M61 1444l523 -889v-555h123v559l520 885h-131l-451 -766l-448 766h-136z" />
<glyph unicode="Z" horiz-adv-x="1193" d="M104 0h965v121h-768l766 1306v17h-891v-121h692l-764 -1305v-18z" />
<glyph unicode="[" horiz-adv-x="747" d="M193 -154h415v117h-295v1520h295v116h-415v-1753z" />
<glyph unicode="\" horiz-adv-x="937" d="M84 1444l653 -1444h117l-653 1444h-117z" />
<glyph unicode="]" horiz-adv-x="747" d="M139 -37v-117h416v1753h-416v-116h295v-1520h-295z" />
<glyph unicode="^" horiz-adv-x="1056" d="M182 629h692v114h-692v-114z" />
<glyph unicode="_" horiz-adv-x="1058" d="M-51 -113v-114h1161v114h-1161z" />
<glyph unicode="`" d="M338 1411l184 -348h86l-116 348h-154z" />
<glyph unicode="a" horiz-adv-x="960" d="M92 236q0 -117 78 -182.5t201 -65.5q98 0 177 26.5t144 71.5l13 -86h96v524q0 94 -13.5 170t-46 129.5t-91 82t-146.5 28.5q-47 0 -95.5 -6t-91.5 -15.5t-79.5 -19.5t-61.5 -21l31 -104q55 16 122.5 32.5t159.5 16.5q113 0 150 -62.5t41 -179.5q-133 -6 -241.5 -26.5 t-185.5 -60t-119 -102t-42 -150.5zM211 233q0 123 122 174.5t349 59.5v-277q-61 -39 -135 -62.5t-166 -23.5q-86 0 -128 37t-42 92z" />
<glyph unicode="b" horiz-adv-x="1069" d="M170 0h84l12 45q51 -25 129 -41t146 -16q102 0 181 35.5t131 99t78.5 150.5t26.5 190q0 104 -26.5 191t-78.5 148.5t-131 96.5t-181 35q-59 0 -129 -20.5t-123 -45.5v596h-119v-1464zM289 145v611q59 29 123.5 45t117.5 16q82 0 140.5 -29.5t95.5 -80t54.5 -115 t17.5 -131.5q0 -68 -17.5 -132.5t-54.5 -113.5t-95.5 -80t-140.5 -31q-55 0 -116.5 11.5t-124.5 29.5z" />
<glyph unicode="c" horiz-adv-x="876" d="M109 465q0 -115 34.5 -203t94 -149.5t139.5 -93t172 -31.5q63 0 127.5 15t99.5 34l-37 104q-33 -12 -86 -24.5t-104 -12.5q-66 0 -124 24t-101 70t-68 112.5t-25 154.5t25 155.5t68 113.5t101 70.5t124 24.5q47 0 99 -11t85 -25l41 106q-43 23 -101.5 35t-123.5 12 q-90 0 -170 -32.5t-139.5 -94t-95 -151.5t-35.5 -203z" />
<glyph unicode="d" horiz-adv-x="1067" d="M111 459q0 -104 26.5 -191.5t78.5 -149t131 -96t181 -34.5q61 0 135 22.5t128 48.5l8 -59h98v1464h-119v-575q-53 20 -121.5 32.5t-128.5 12.5q-102 0 -181 -36t-131 -99.5t-78.5 -150.5t-26.5 -189zM231 461q0 68 17.5 132t54.5 113.5t95.5 80t140.5 30.5 q55 0 115.5 -11t123.5 -30v-612q-59 -27 -123.5 -43.5t-115.5 -16.5q-82 0 -140.5 30t-95.5 80t-54.5 114.5t-17.5 132.5z" />
<glyph unicode="e" horiz-adv-x="978" d="M109 463q0 -111 30.5 -199t87 -149.5t136 -94t178.5 -32.5q41 0 84 6t80.5 14t68.5 18.5t49 20.5l-39 103q-18 -6 -46.5 -14.5t-61.5 -15.5t-69 -11.5t-66 -4.5q-137 0 -220.5 89t-91.5 243h643q-4 147 -35.5 245.5t-84 157t-118 83t-134.5 24.5q-78 0 -148.5 -34.5 t-124 -98t-86 -153t-32.5 -197.5zM236 551q23 129 94 203.5t170 74.5q98 0 163.5 -65.5t77.5 -212.5h-505z" />
<glyph unicode="f" horiz-adv-x="665" d="M66 819h172v-819h118v819h228v115h-228v194q0 68 13.5 111t37 67.5t55.5 34t68 9.5q23 0 47.5 -3.5t47.5 -7.5l16 113q-55 12 -113 12q-61 0 -114.5 -17t-92 -56t-61 -101.5t-22.5 -152.5v-203h-172v-115z" />
<glyph unicode="g" horiz-adv-x="1024" d="M61 -129q0 -135 122 -200.5t331 -65.5q104 0 190.5 19.5t147.5 57t95 93t34 125.5q0 86 -33 136t-90 77.5t-132 39t-157 17.5q-72 6 -130 10t-100 13.5t-64.5 26t-22.5 42.5q0 47 51 92q92 -51 215 -51q82 0 151.5 22.5t121 63.5t79 101.5t27.5 134.5q0 78 -30.5 139 t-86.5 102l160 154h-137l-115 -105q-76 29 -170 29q-80 0 -148.5 -21.5t-118.5 -62.5t-78 -100.5t-28 -134.5q0 -66 21.5 -120t60.5 -95q-41 -29 -66.5 -70t-25.5 -86q0 -51 21.5 -84t60.5 -55q-59 -39 -107.5 -97.5t-48.5 -146.5zM180 -117q0 55 44 108.5t112 86.5 q51 -8 108.5 -12.5t122.5 -8.5q63 -4 116.5 -11t93.5 -23.5t62.5 -45t22.5 -77.5q0 -90 -95 -137.5t-253 -47.5q-66 0 -125 8.5t-106 28t-75 52t-28 79.5zM264 627q0 100 72 151t182 51q111 0 185.5 -51t74.5 -151q0 -102 -74.5 -155.5t-185.5 -53.5t-182.5 53t-71.5 156z " />
<glyph unicode="h" horiz-adv-x="1077" d="M170 0h119v756q47 20 123.5 40.5t175.5 20.5q63 0 104 -21.5t64.5 -64.5t33 -106.5t9.5 -145.5v-479h119v537q0 193 -75 295t-241 102q-100 0 -180 -21.5t-133 -44.5v596h-119v-1464z" />
<glyph unicode="i" horiz-adv-x="477" d="M141 1266q0 -41 28 -69t69 -28t68.5 28t27.5 69t-27.5 68.5t-68.5 27.5t-69 -27.5t-28 -68.5zM178 0h119v934h-119v-934z" />
<glyph unicode="j" horiz-adv-x="477" d="M-66 -377q23 -6 49.5 -9t49.5 -3q55 0 104 17.5t84 56.5t55.5 101t20.5 153v995h-119v-987q0 -70 -11 -113t-30.5 -67.5t-46.5 -32.5t-59 -8q-37 0 -82 10zM141 1266q0 -41 28 -69t69 -28t68.5 28t27.5 69t-27.5 68.5t-68.5 27.5t-69 -27.5t-28 -68.5z" />
<glyph unicode="k" horiz-adv-x="974" d="M170 0h119v379l137 131l344 -510h139l-399 592l360 342h-147l-434 -414v955h-119v-1475z" />
<glyph unicode="l" horiz-adv-x="477" d="M178 0h119v1464h-119v-1464z" />
<glyph unicode="m" horiz-adv-x="1650" d="M170 0h119v756q45 20 112.5 40.5t165.5 20.5q80 0 122 -21.5t62.5 -64.5t23.5 -106.5t3 -145.5v-479h119v537q0 127 -20 208q45 23 114.5 47.5t169.5 24.5q80 0 122 -21.5t62.5 -64.5t23.5 -106.5t3 -145.5v-479h119v537q0 96 -12.5 169.5t-46 125t-96 77t-160.5 25.5 q-102 0 -187.5 -28.5t-157.5 -63.5q-35 47 -95 69.5t-154 22.5q-104 0 -179 -23.5t-124 -48.5l-11 72h-98v-934z" />
<glyph unicode="n" horiz-adv-x="1077" d="M170 0h119v756q47 20 123.5 40.5t175.5 20.5q63 0 104 -21.5t64.5 -64.5t33 -106.5t9.5 -145.5v-479h119v537q0 193 -75 295t-241 102q-104 0 -187 -23.5t-136 -48.5l-11 72h-98v-934z" />
<glyph unicode="o" horiz-adv-x="1073" d="M109 465q0 -111 33.5 -200t92 -150.5t136.5 -94t164 -32.5q88 0 165.5 32.5t136 94t93.5 150.5t35 200t-35 200t-93.5 151.5t-136 96t-165.5 33.5q-86 0 -164 -33.5t-136.5 -96t-92 -152t-33.5 -199.5zM229 463q0 86 23.5 153.5t65.5 114.5t97.5 72.5t119.5 25.5 q63 0 119.5 -25.5t98.5 -72.5t66.5 -114.5t24.5 -153.5t-24.5 -152.5t-66.5 -112.5t-98.5 -70t-119.5 -24t-119 24t-98 70t-65.5 112.5t-23.5 152.5z" />
<glyph unicode="p" horiz-adv-x="1069" d="M170 -385h119v420q53 -23 122.5 -35t129.5 -12q102 0 181 35.5t131 99t78.5 150.5t26.5 190q0 104 -26.5 191t-78.5 148.5t-131 96.5t-181 35q-61 0 -135 -22.5t-127 -49.5l-11 72h-98v-1319zM289 145v611q59 29 123.5 45t117.5 16q82 0 140.5 -29.5t95.5 -80t54.5 -115 t17.5 -131.5q0 -68 -17.5 -132.5t-54.5 -113.5t-95.5 -80t-140.5 -31q-55 0 -116.5 11.5t-124.5 29.5z" />
<glyph unicode="q" horiz-adv-x="1067" d="M111 459q0 -104 26.5 -191.5t78.5 -149t131 -96t181 -34.5q59 0 128 20t122 45v-438h119v1319h-90l-12 -53q-51 23 -126 38t-141 15q-102 0 -181 -36t-131 -99.5t-78.5 -150.5t-26.5 -189zM231 461q0 68 17.5 132t54.5 113.5t95.5 80t140.5 30.5q55 0 115.5 -11.5 t123.5 -29.5v-612q-59 -27 -123.5 -43.5t-115.5 -16.5q-82 0 -140.5 30t-95.5 80t-54.5 114.5t-17.5 132.5z" />
<glyph unicode="r" horiz-adv-x="684" d="M170 0h119v713q59 35 138 67.5t171 46.5v123q-45 -8 -90 -21.5t-86 -29.5t-77.5 -35t-63.5 -37l-13 107h-98v-934z" />
<glyph unicode="s" horiz-adv-x="929" d="M100 66q45 -23 137.5 -49.5t215.5 -26.5q78 0 145.5 16.5t117.5 48t78.5 80.5t28.5 117q0 70 -26.5 115t-71.5 75.5t-104.5 51t-126.5 38.5q-53 14 -97.5 28.5t-75 33t-48 44.5t-17.5 62q0 29 10 52.5t36 41t68 26.5t105 9q66 0 136.5 -14t123.5 -37l41 107 q-59 29 -135 45t-166 16q-156 0 -247 -63.5t-91 -186.5q0 -72 30 -118t76 -76.5t104.5 -49t117.5 -34.5q47 -12 90 -26.5t77 -33t53.5 -45t19.5 -65.5q0 -72 -67 -107t-187 -35q-37 0 -79 6.5t-84 15.5t-80 20.5t-63 23.5z" />
<glyph unicode="t" horiz-adv-x="727" d="M55 819h164v-565q0 -139 60.5 -202.5t199.5 -63.5q53 0 88 6t58 10l-21 109q-23 -4 -50.5 -7.5t-68.5 -3.5q-76 0 -111.5 32t-35.5 130v555h246v115h-246v328h-119v-328h-164v-115z" />
<glyph unicode="u" horiz-adv-x="1069" d="M160 387q0 -193 74.5 -295t240.5 -102q102 0 183 22.5t135 44.5l8 -57h98v934h-119v-770q-47 -20 -122.5 -39t-168.5 -19q-63 0 -104 22t-64.5 65t-32.5 105t-9 146v490h-119v-547z" />
<glyph unicode="v" horiz-adv-x="946" d="M41 934l420 -946h24l420 946h-121l-309 -701l-309 701h-125z" />
<glyph unicode="w" horiz-adv-x="1429" d="M41 934l387 -946h21l266 671l266 -671h20l388 946h-119l-277 -678l-266 678h-20l-267 -680l-276 680h-123z" />
<glyph unicode="x" horiz-adv-x="915" d="M61 0h129l263 389l266 -389h135l-328 477l312 457h-129l-246 -365l-250 365h-135l311 -453z" />
<glyph unicode="y" horiz-adv-x="946" d="M41 934l365 -909l-170 -410h120l549 1319h-121l-315 -758l-303 758h-125z" />
<glyph unicode="z" horiz-adv-x="884" d="M82 0h725v115h-528l512 805v14h-656v-115h459l-512 -805v-14z" />
<glyph unicode="{" horiz-adv-x="843" d="M66 664h135q63 0 92 -37t18 -92l-49 -314q-14 -96 9.5 -166.5t77.5 -117t137.5 -69t187.5 -22.5h28v117q-84 0 -147 10.5t-105 38t-58.5 74.5t-4.5 121l45 272q16 109 -21.5 168.5t-115.5 75.5q78 18 116 77.5t21 166.5l-45 270q-12 74 4.5 121t58.5 74.5t105 39 t147 11.5v116h-28q-104 0 -188.5 -22.5t-139.5 -69.5t-78.5 -117.5t-7.5 -164.5l51 -320q10 -55 -19.5 -92t-90.5 -37h-135v-112z" />
<glyph unicode="|" horiz-adv-x="567" d="M223 -154h121v1753h-121v-1753z" />
<glyph unicode="}" horiz-adv-x="843" d="M141 -37v-117h29q104 0 187 22.5t138.5 70t79 117t9.5 165.5l-52 320q-10 55 20 92t91 37h135v112h-135q-63 0 -92 37t-19 92l50 314q14 96 -9.5 166.5t-78 116.5t-137.5 68.5t-187 22.5h-29v-116q84 0 147.5 -10.5t105.5 -38t58.5 -74.5t4.5 -121l-45 -272 q-16 -109 21.5 -168.5t115.5 -75.5q-78 -18 -116 -77.5t-21 -166.5l45 -270q12 -74 -4.5 -122t-58.5 -75.5t-105.5 -38t-147.5 -10.5z" />
<glyph unicode="~" d="M229 1073l103 -16q12 59 29.5 104t56.5 45q25 0 51.5 -23.5t55 -51t61 -51t73.5 -23.5q39 0 70 20.5t52.5 56t37 82t25.5 95.5l-103 16q-14 -63 -30.5 -108t-51.5 -45q-23 0 -48 23.5t-55 51t-64.5 51t-75.5 23.5q-37 0 -68 -19.5t-54.5 -53t-39.5 -80t-25 -97.5z" />
<glyph unicode="&#xa1;" horiz-adv-x="704" d="M250 965q0 -43 29.5 -73t72.5 -30q41 0 71 30t30 73t-30 71.5t-71 28.5q-43 0 -72.5 -28.5t-29.5 -71.5zM291 -397h123v1065h-123v-1065z" />
<glyph unicode="&#xa2;" horiz-adv-x="872" d="M115 465q0 -98 26.5 -179t73.5 -140.5t110.5 -97.5t139.5 -52v-176h110v170q59 2 117 16t90 31l-37 102q-29 -10 -75.5 -21.5t-94.5 -15.5v729q43 -4 89.5 -14t74.5 -22l41 104q-41 23 -93 34t-112 13v154h-110v-162q-74 -16 -137.5 -54t-111.5 -98.5t-74.5 -141.5 t-26.5 -179zM236 465q0 145 64.5 235t164.5 119v-704q-100 29 -164.5 116.5t-64.5 233.5z" />
<glyph unicode="&#xa3;" horiz-adv-x="1052" d="M45 674h191q12 -51 20 -99.5t8 -95.5q0 -57 -9 -108.5t-30.5 -105.5t-56.5 -114.5t-84 -136.5v-14h846v117h-647q43 78 73.5 164t30.5 194q0 47 -8 96.5t-21 102.5h394v108h-420q-18 76 -33.5 147.5t-15.5 131.5q0 141 85 202.5t250 61.5q72 0 145 -12.5t120 -26.5 l28 113q-23 8 -55.5 16t-72.5 14.5t-83 10.5t-82 4q-213 0 -335.5 -93.5t-122.5 -287.5q0 -68 14 -138.5t33 -142.5h-162v-108z" />
<glyph unicode="&#xa4;" horiz-adv-x="1216" d="M76 502h231q25 -133 81 -230.5t133 -161t172 -93t198 -29.5q76 0 143.5 15t112.5 38l-35 109q-29 -10 -87 -27t-134 -17q-172 0 -293 98.5t-166 297.5h510v108h-526q-2 27 -3 52.5t-1 54.5q0 66 6 125h524v108h-506q47 188 165 281.5t284 93.5q47 0 108.5 -10t114.5 -29 l35 111q-27 12 -96.5 29.5t-163.5 17.5q-98 0 -189.5 -30t-167 -90t-132 -153.5t-83.5 -220.5h-235v-108h219q-6 -61 -6 -127q0 -29 1 -54.5t3 -50.5h-217v-108z" />
<glyph unicode="&#xa5;" horiz-adv-x="1226" d="M74 1434l362 -637h-291v-109h355l57 -102v-140h-412v-108h412v-338h121v338h403v108h-403v150l53 92h350v109h-288l360 637h-123l-414 -721l-411 721h-131z" />
<glyph unicode="&#xa6;" horiz-adv-x="567" d="M223 -154h121v721h-121v-721zM223 879h121v720h-121v-720z" />
<glyph unicode="&#xa7;" horiz-adv-x="1046" d="M123 903q0 -102 41 -191t123 -160t201.5 -119t277.5 -68q-53 -109 -188.5 -180.5t-356.5 -82.5v-114q172 8 303 54t220.5 118.5t134.5 167t45 200.5q0 102 -41 191.5t-123 160t-202 119t-277 68.5q55 106 193 179t372 83v115q-180 -8 -315.5 -54.5t-226.5 -119 t-136 -166.5t-45 -201zM242 905q0 14 1 28t3 28q141 -18 245.5 -57.5t174 -96.5t104.5 -128t35 -153q0 -14 -1 -27.5t-3 -27.5q-141 18 -245.5 57t-174.5 96.5t-104.5 128t-34.5 152.5z" />
<glyph unicode="&#xa8;" d="M270 1176q0 -41 28 -68t69 -27q39 0 66.5 27t27.5 68t-27.5 69.5t-66.5 28.5q-41 0 -69 -28.5t-28 -69.5zM614 1176q0 -41 28 -68t67 -27q41 0 68.5 27t27.5 68t-27.5 69.5t-68.5 28.5q-39 0 -67 -28.5t-28 -69.5z" />
<glyph unicode="&#xa9;" horiz-adv-x="1568" d="M131 723q0 -164 51 -300t140.5 -234.5t208 -153.5t253.5 -55t254 55t208 153.5t140.5 234.5t51.5 300t-51.5 300t-140.5 234.5t-207.5 153.5t-254.5 55q-135 0 -253.5 -55t-208 -153.5t-140.5 -234.5t-51 -300zM225 723q0 147 44 267t119 206t177.5 133t218.5 47 q117 0 219.5 -47t177 -133t118.5 -206t44 -267t-44 -267t-118.5 -206t-177 -133t-219.5 -47t-219 47t-177 133t-119 205.5t-44 267.5zM403 719q0 -123 37 -210t96.5 -141.5t135 -80t153.5 -25.5q47 0 99.5 10.5t93.5 32.5l-35 96q-29 -12 -71 -23t-87 -11q-61 0 -118.5 21.5 t-100.5 66.5t-68.5 110.5t-25.5 155.5q0 88 25.5 154.5t67.5 110.5t98.5 66.5t117.5 22.5q29 0 73 -6t89 -20l33 96q-29 12 -82 24.5t-113 12.5q-76 0 -150.5 -27t-134 -82t-96.5 -143t-37 -211z" />
<glyph unicode="&#xaa;" horiz-adv-x="843" d="M141 915q0 -92 60.5 -143t156.5 -51q72 0 129.5 19.5t104.5 50.5l8 -60h88v402q0 74 -10 129t-36 94t-70 58.5t-113 19.5q-72 0 -142.5 -16.5t-113.5 -33.5l28 -94q47 14 97.5 26.5t117.5 12.5q78 0 105 -37.5t31 -115.5q-205 -8 -323 -67.5t-118 -193.5zM174 524h514 v105h-514v-105zM246 913q0 88 87 124t251 42v-192q-51 -29 -103.5 -45.5t-113.5 -16.5q-59 0 -90 24.5t-31 63.5z" />
<glyph unicode="&#xab;" horiz-adv-x="1122" d="M152 467l237 -467h129l-237 467l237 467h-129zM588 467l237 -467h129l-237 467l237 467h-129z" />
<glyph unicode="&#xac;" horiz-adv-x="1536" d="M31 934l456 -371l-172 -594l453 367l453 -367l-174 594l458 371h-567l-172 590l-172 -590h-563z" />
<glyph unicode="&#xad;" horiz-adv-x="1056" d="M182 547h692v115h-692v-115z" />
<glyph unicode="&#xae;" horiz-adv-x="1568" d="M131 723q0 -164 51 -300t140.5 -234.5t208 -153.5t253.5 -55t254 55t208 153.5t140.5 234.5t51.5 300t-51.5 300t-140.5 234.5t-207.5 153.5t-254.5 55q-135 0 -253.5 -55t-208 -153.5t-140.5 -234.5t-51 -300zM225 723q0 147 44 267t119 206t177.5 133t218.5 47 q117 0 219.5 -47t177 -133t118.5 -206t44 -267t-44 -267t-118.5 -206t-177 -133t-219.5 -47t-219 47t-177 133t-119 205.5t-44 267.5zM514 303h102v297h60q35 0 68.5 2t62.5 6l203 -305h116l-219 334q162 63 162 244q0 135 -96 205.5t-307 70.5h-152v-854zM616 698v359h66 q150 0 216.5 -43t66.5 -135q0 -94 -64.5 -137.5t-218.5 -43.5h-66z" />
<glyph unicode="&#xaf;" d="M254 1075h567v109h-567v-109z" />
<glyph unicode="&#xb0;" horiz-adv-x="1048" d="M131 985q0 -102 31 -186t85 -145.5t125.5 -95.5t153.5 -34q80 0 151 34t125 95.5t85 145.5t31 186q0 100 -31 184t-84 145.5t-125 95.5t-152 34q-82 0 -153.5 -34t-125.5 -95.5t-85 -145.5t-31 -184zM250 985q0 72 21.5 135.5t58.5 109.5t87 72.5t109 26.5 q57 0 107.5 -26.5t87.5 -72.5t57.5 -109.5t20.5 -135.5q0 -74 -20.5 -137.5t-57.5 -109.5t-87.5 -72.5t-107.5 -26.5q-59 0 -109 26.5t-87 72.5t-58.5 109.5t-21.5 137.5z" />
<glyph unicode="&#xb1;" horiz-adv-x="1789" d="M66 819h172v-819h118v819h508v-819h119v819h227v115h-227v115q0 88 13.5 146t44 92t83 47.5t131.5 13.5q55 0 116 -7.5t120 -19.5v-1321h119v1434h-88q-61 14 -131 22t-140 8q-98 0 -170.5 -20.5t-121 -69.5t-72 -128t-23.5 -195v-117h-508v133q0 68 13.5 111t37 67.5 t55.5 33.5t68 9q23 0 47.5 -3t47.5 -7l16 113q-55 12 -113 12q-61 0 -114.5 -17.5t-92 -56.5t-61 -101.5t-22.5 -152.5v-141h-172v-115z" />
<glyph unicode="&#xb2;" horiz-adv-x="839" d="M127 537h569v110h-364l94 113q104 123 162.5 223t58.5 209q0 131 -81 191.5t-216 60.5q-66 0 -123 -13.5t-94 -29.5l29 -103q47 14 94 23.5t92 9.5q88 0 136 -31.5t48 -109.5q0 -82 -49 -167t-137 -189l-219 -263v-34z" />
<glyph unicode="&#xb3;" horiz-adv-x="796" d="M137 1323h305l-166 -231v-31q43 -6 91.5 -16.5t90.5 -34t69.5 -61.5t27.5 -97q0 -63 -33 -104t-88 -65t-130 -34t-161 -10l7 -113q117 2 213 20.5t163.5 57.5t105.5 100.5t38 147.5q0 70 -24.5 120t-59.5 82.5t-74 52t-70 30.5l187 262v35h-492v-111z" />
<glyph unicode="&#xb4;" d="M467 1063h86l184 348h-153z" />
<glyph unicode="&#xb5;" horiz-adv-x="1536" d="M31 934l456 -371l-172 -594l453 367l453 -367l-174 594l458 371h-567l-172 590l-172 -590h-563z" />
<glyph unicode="&#xb6;" horiz-adv-x="1095" d="M92 993q0 -125 66.5 -228t224.5 -161v-604h121v573q51 -10 110.5 -15t124.5 -5h56v-553h120v1434h-157q-188 0 -315.5 -34t-205 -93.5t-111.5 -139.5t-34 -174zM215 991q0 80 29.5 140.5t97.5 101.5t178.5 61.5t274.5 20.5v-643q-164 0 -274.5 20.5t-178.5 60.5t-97.5 99 t-29.5 139z" />
<glyph unicode="&#xb7;" horiz-adv-x="499" d="M147 737q0 -43 30 -71.5t71 -28.5q45 0 74.5 28.5t29.5 71.5t-29.5 73t-74.5 30q-41 0 -71 -30t-30 -73z" />
<glyph unicode="&#xb8;" d="M418 -313h135l119 340h-111z" />
<glyph unicode="&#xb9;" horiz-adv-x="663" d="M176 1323h135v-791h115v902h-250v-111z" />
<glyph unicode="&#xba;" horiz-adv-x="903" d="M131 1083q0 -84 25.5 -150.5t68.5 -112.5t101.5 -70.5t124.5 -24.5q68 0 126 24.5t102 70.5t69.5 112.5t25.5 150.5q0 82 -25.5 149.5t-69.5 114t-103.5 72t-124.5 25.5q-66 0 -124.5 -24.5t-101.5 -72t-68.5 -114t-25.5 -150.5zM166 524h575v105h-575v-105zM242 1083 q0 113 60 183.5t149 70.5q90 0 151.5 -69.5t61.5 -184.5q0 -113 -60.5 -182.5t-152.5 -69.5q-88 0 -148.5 70t-60.5 182z" />
<glyph unicode="&#xbb;" horiz-adv-x="1122" d="M168 0h129l238 467l-238 467h-129l235 -467zM604 0h129l238 467l-238 467h-129l238 -467z" />
<glyph unicode="&#xbc;" horiz-adv-x="1738" d="M176 1323h135v-791h115v902h-250v-111zM399 0h113l729 1434h-113zM893 205h434v-205h115v205h129v110h-129v592h-45l-504 -661v-41zM1077 315l250 326v-326h-250z" />
<glyph unicode="&#xbd;" horiz-adv-x="1861" d="M176 1323h135v-791h115v902h-250v-111zM399 0h113l729 1434h-113zM1122 0h570v111h-365l94 112q104 123 162.5 223.5t58.5 208.5q0 131 -80.5 191.5t-215.5 60.5q-66 0 -123.5 -13t-94.5 -30l29 -102q47 14 94 23.5t92 9.5q88 0 136.5 -32t48.5 -110q0 -82 -49 -167 t-138 -189l-219 -262v-35z" />
<glyph unicode="&#xbe;" horiz-adv-x="1742" d="M137 1323h305l-166 -231v-31q43 -6 91.5 -16.5t90.5 -34t69.5 -61.5t27.5 -97q0 -63 -33 -104t-88 -65t-130 -34t-161 -10l7 -113q117 2 213 20.5t163.5 57.5t105.5 100.5t38 147.5q0 70 -24.5 120t-59.5 82.5t-74 52t-70 30.5l187 262v35h-492v-111zM481 0h113l729 1434 h-113zM958 205h435v-205h114v205h129v110h-129v592h-45l-504 -661v-41zM1143 315l250 326v-326h-250z" />
<glyph unicode="&#xbf;" horiz-adv-x="1173" d="M197 61q0 -141 59 -232t149.5 -143.5t198 -72t205.5 -19.5q106 0 184 17l-14 113q-33 -6 -72 -9.5t-92 -3.5q-80 0 -168 15.5t-161.5 55.5t-121 108.5t-47.5 172.5q0 90 36 154t97.5 106t143.5 65.5t172 35.5v281h-123v-191q-74 -16 -153.5 -48t-144 -85t-106.5 -132 t-42 -188zM612 965q0 -43 30 -72t73 -29q41 0 69.5 29t28.5 72q0 47 -28.5 73.5t-69.5 26.5q-43 0 -73 -26.5t-30 -73.5z" />
<glyph unicode="&#xc0;" horiz-adv-x="1304" d="M61 0h129l132 334h657l131 -334h133l-577 1460h-27zM369 451l282 718l283 -718h-565zM455 1882l184 -348h86l-117 348h-153z" />
<glyph unicode="&#xc1;" horiz-adv-x="1304" d="M61 0h129l132 334h657l131 -334h133l-577 1460h-27zM369 451l282 718l283 -718h-565zM584 1534h86l184 348h-154z" />
<glyph unicode="&#xc2;" horiz-adv-x="1304" d="M61 0h129l132 334h657l131 -334h133l-577 1460h-27zM369 451l282 718l283 -718h-565zM371 1513h106l176 201l178 -201h107l-276 394h-15z" />
<glyph unicode="&#xc3;" horiz-adv-x="1304" d="M61 0h129l132 334h657l131 -334h133l-577 1460h-27zM346 1544l103 -16q12 59 29.5 104t56.5 45q25 0 51 -23.5t55 -51t61.5 -51t73.5 -23.5q39 0 70 20.5t52.5 56t36.5 82t26 95.5l-103 16q-14 -63 -30.5 -108t-51.5 -45q-23 0 -48.5 23.5t-55 51t-64.5 51t-76 23.5 q-37 0 -67.5 -19.5t-54 -53t-40 -80t-24.5 -97.5zM369 451l282 718l283 -718h-565z" />
<glyph unicode="&#xc4;" horiz-adv-x="1304" d="M61 0h129l132 334h657l131 -334h133l-577 1460h-27zM182 1346q0 -41 28 -68t69 -27q39 0 66.5 27t27.5 68t-28 69.5t-66 28.5q-41 0 -69 -29t-28 -69zM369 451l282 718l283 -718h-565zM936 1346q0 -41 27.5 -68t66.5 -27q41 0 68.5 27t27.5 68t-27.5 69.5t-68.5 28.5 q-39 0 -66.5 -29t-27.5 -69z" />
<glyph unicode="&#xc5;" horiz-adv-x="1304" d="M61 0h129l132 334h657l131 -334h133l-551 1391q66 16 108 72.5t42 131.5q0 92 -53.5 152.5t-137.5 60.5q-41 0 -74.5 -16t-59 -45t-40 -68t-14.5 -84q0 -78 42 -133t107 -71zM369 451l282 718l283 -718h-565zM543 1595q0 59 31.5 97.5t76.5 38.5q47 0 79 -38t32 -98 q0 -57 -32 -93t-79 -36q-45 0 -76.5 36t-31.5 93z" />
<glyph unicode="&#xc6;" horiz-adv-x="1845" d="M45 0h129l242 414h522v-414h786v121h-661v541h510v120h-510v541h639v121h-813zM485 532l453 775v-775h-453z" />
<glyph unicode="&#xc7;" horiz-adv-x="1202" d="M137 719q0 -158 39 -279t104.5 -208t152.5 -142t183 -82l-135 -321h135l107 303q45 -6 90 -6q78 0 157 15t126 38l-37 110q-29 -10 -98.5 -26.5t-147.5 -16.5q-109 0 -208 38t-174 115t-120 192.5t-45 271.5q0 154 44 270.5t118 193.5t172 115.5t207 38.5q25 0 56.5 -3 t65.5 -7t66.5 -12t59.5 -17l37 113q-29 12 -110 29.5t-177 17.5q-121 0 -241 -42t-215 -132t-153.5 -230.5t-58.5 -336.5z" />
<glyph unicode="&#xc8;" horiz-adv-x="1101" d="M195 0h786v121h-662v541h510v120h-510v541h639v121h-763v-1444zM362 1882l185 -348h86l-117 348h-154z" />
<glyph unicode="&#xc9;" horiz-adv-x="1101" d="M195 0h786v121h-662v541h510v120h-510v541h639v121h-763v-1444zM492 1534h86l184 348h-154z" />
<glyph unicode="&#xca;" horiz-adv-x="1101" d="M195 0h786v121h-662v541h510v120h-510v541h639v121h-763v-1444zM279 1534h106l176 201l178 -201h107l-277 393h-14z" />
<glyph unicode="&#xcb;" horiz-adv-x="1101" d="M195 0h786v121h-662v541h510v120h-510v541h639v121h-763v-1444zM295 1647q0 -41 27.5 -68t68.5 -27q39 0 66.5 27t27.5 68t-27.5 69.5t-66.5 28.5q-41 0 -68.5 -28.5t-27.5 -69.5zM639 1647q0 -41 27.5 -68t66.5 -27q41 0 68.5 27t27.5 68t-27.5 69.5t-68.5 28.5 q-39 0 -66.5 -28.5t-27.5 -69.5z" />
<glyph unicode="&#xcc;" horiz-adv-x="534" d="M49 1882l184 -348h86l-116 348h-154zM205 0h125v1444h-125v-1444z" />
<glyph unicode="&#xcd;" horiz-adv-x="534" d="M205 0h125v1444h-125v-1444zM215 1534h86l184 348h-153z" />
<glyph unicode="&#xce;" horiz-adv-x="534" d="M-16 1534h106l176 201l178 -201h107l-277 393h-14zM205 0h125v1444h-125v-1444z" />
<glyph unicode="&#xcf;" horiz-adv-x="534" d="M0 1647q0 -41 27.5 -68t68.5 -27q39 0 66.5 27t27.5 68t-27.5 69.5t-66.5 28.5q-41 0 -68.5 -28.5t-27.5 -69.5zM205 0h125v1444h-125v-1444zM344 1647q0 -41 27.5 -68t66.5 -27q41 0 69 27t28 68t-28 69.5t-69 28.5q-39 0 -66.5 -28.5t-27.5 -69.5z" />
<glyph unicode="&#xd0;" horiz-adv-x="1372" d="M29 670h166v-670h231q412 0 612.5 181t200.5 542q0 360 -200.5 540.5t-612.5 180.5h-231v-660h-166v-114zM319 121v549h297v114h-297v539h168q317 0 471 -154.5t154 -449.5t-154.5 -446.5t-470.5 -151.5h-168z" />
<glyph unicode="&#xd1;" horiz-adv-x="1415" d="M195 0h118v1139l883 -1151h25v1456h-119v-1139l-883 1151h-24v-1456zM399 1544l103 -16q12 59 29.5 104t56.5 45q25 0 51.5 -23.5t55 -51t61 -51t73.5 -23.5q39 0 70 20.5t52.5 56t37 82t25.5 95.5l-103 16q-14 -63 -30.5 -108t-51.5 -45q-23 0 -48 23.5t-55 51t-64.5 51 t-75.5 23.5q-37 0 -68 -19.5t-54.5 -53t-39.5 -80t-25 -97.5z" />
<glyph unicode="&#xd2;" horiz-adv-x="1531" d="M137 723q0 -164 47 -301t131 -235.5t200 -152.5t251 -54t251 54t199.5 152.5t131 235.5t47.5 301t-47.5 300t-131 234.5t-199.5 152.5t-251 54t-251 -54t-200 -152.5t-131 -234.5t-47 -300zM264 723q0 133 36 246.5t102.5 196.5t158.5 130t205 47t205 -47t158.5 -130 t102.5 -196.5t36 -246.5t-36 -248t-102.5 -197.5t-158.5 -130t-205 -47.5t-205 47.5t-158.5 130t-102.5 197.5t-36 248zM567 1882l185 -348h86l-117 348h-154z" />
<glyph unicode="&#xd3;" horiz-adv-x="1531" d="M137 723q0 -164 47 -301t131 -235.5t200 -152.5t251 -54t251 54t199.5 152.5t131 235.5t47.5 301t-47.5 300t-131 234.5t-199.5 152.5t-251 54t-251 -54t-200 -152.5t-131 -234.5t-47 -300zM264 723q0 133 36 246.5t102.5 196.5t158.5 130t205 47t205 -47t158.5 -130 t102.5 -196.5t36 -246.5t-36 -248t-102.5 -197.5t-158.5 -130t-205 -47.5t-205 47.5t-158.5 130t-102.5 197.5t-36 248zM696 1534h86l185 348h-154z" />
<glyph unicode="&#xd4;" horiz-adv-x="1531" d="M137 723q0 -164 47 -301t131 -235.5t200 -152.5t251 -54t251 54t199.5 152.5t131 235.5t47.5 301t-47.5 300t-131 234.5t-199.5 152.5t-251 54t-251 -54t-200 -152.5t-131 -234.5t-47 -300zM264 723q0 133 36 246.5t102.5 196.5t158.5 130t205 47t205 -47t158.5 -130 t102.5 -196.5t36 -246.5t-36 -248t-102.5 -197.5t-158.5 -130t-205 -47.5t-205 47.5t-158.5 130t-102.5 197.5t-36 248zM483 1534h107l176 201l178 -201h107l-277 393h-14z" />
<glyph unicode="&#xd5;" horiz-adv-x="1531" d="M137 723q0 -164 47 -301t131 -235.5t200 -152.5t251 -54t251 54t199.5 152.5t131 235.5t47.5 301t-47.5 300t-131 234.5t-199.5 152.5t-251 54t-251 -54t-200 -152.5t-131 -234.5t-47 -300zM264 723q0 133 36 246.5t102.5 196.5t158.5 130t205 47t205 -47t158.5 -130 t102.5 -196.5t36 -246.5t-36 -248t-102.5 -197.5t-158.5 -130t-205 -47.5t-205 47.5t-158.5 130t-102.5 197.5t-36 248zM459 1544l102 -16q12 59 29.5 104t56.5 45q25 0 51.5 -23.5t55 -51t61.5 -51t74 -23.5q39 0 69.5 20.5t52 56t37 82t25.5 95.5l-102 16 q-14 -63 -30.5 -108t-51.5 -45q-23 0 -48.5 23.5t-55 51t-64.5 51t-76 23.5q-37 0 -67.5 -19.5t-54 -53t-40 -80t-24.5 -97.5z" />
<glyph unicode="&#xd6;" horiz-adv-x="1531" d="M137 723q0 -164 47 -301t131 -235.5t200 -152.5t251 -54t251 54t199.5 152.5t131 235.5t47.5 301t-47.5 300t-131 234.5t-199.5 152.5t-251 54t-251 -54t-200 -152.5t-131 -234.5t-47 -300zM264 723q0 133 36 246.5t102.5 196.5t158.5 130t205 47t205 -47t158.5 -130 t102.5 -196.5t36 -246.5t-36 -248t-102.5 -197.5t-158.5 -130t-205 -47.5t-205 47.5t-158.5 130t-102.5 197.5t-36 248zM500 1647q0 -41 27.5 -68t68.5 -27q39 0 66.5 27t27.5 68t-27.5 69.5t-66.5 28.5q-41 0 -68.5 -28.5t-27.5 -69.5zM844 1647q0 -41 27.5 -68t66.5 -27 q41 0 68.5 27t27.5 68t-27.5 69.5t-68.5 28.5q-39 0 -66.5 -28.5t-27.5 -69.5z" />
<glyph unicode="&#xd7;" horiz-adv-x="1138" d="M213 428l78 -78l278 279l279 -279l78 78l-279 279l279 278l-78 78l-279 -279l-278 279l-78 -78l279 -278z" />
<glyph unicode="&#xd8;" horiz-adv-x="1531" d="M137 723q0 -180 56.5 -326.5t154.5 -244.5l-153 -261h116l115 195q72 -51 158 -78.5t182 -27.5q135 0 251 54t199.5 152.5t131 235.5t47.5 301q0 195 -65.5 349.5t-180.5 252.5l135 229h-117l-100 -170q-66 39 -141.5 59.5t-159.5 20.5q-135 0 -251 -54t-200 -152.5 t-131 -234.5t-47 -300zM264 723q0 133 36 246.5t102.5 196.5t158.5 130t205 47q133 0 240 -65l-592 -1014q-72 86 -111 203t-39 256zM487 193l598 1021q86 -84 134.5 -209.5t48.5 -281.5q0 -133 -36 -248t-102.5 -197.5t-158.5 -130t-205 -47.5q-158 0 -279 93z" />
<glyph unicode="&#xd9;" horiz-adv-x="1404" d="M188 530q0 -276 132 -415.5t380 -139.5q246 0 381.5 141.5t135.5 413.5v914h-121v-916q0 -219 -104.5 -326.5t-291.5 -107.5q-186 0 -286.5 107.5t-100.5 326.5v916h-125v-914zM504 1882l184 -348h86l-117 348h-153z" />
<glyph unicode="&#xda;" horiz-adv-x="1404" d="M188 530q0 -276 132 -415.5t380 -139.5q246 0 381.5 141.5t135.5 413.5v914h-121v-916q0 -219 -104.5 -326.5t-291.5 -107.5q-186 0 -286.5 107.5t-100.5 326.5v916h-125v-914zM633 1534h86l184 348h-153z" />
<glyph unicode="&#xdb;" horiz-adv-x="1404" d="M188 530q0 -276 132 -415.5t380 -139.5q246 0 381.5 141.5t135.5 413.5v914h-121v-916q0 -219 -104.5 -326.5t-291.5 -107.5q-186 0 -286.5 107.5t-100.5 326.5v916h-125v-914zM420 1534h106l176 201l179 -201h106l-276 393h-15z" />
<glyph unicode="&#xdc;" horiz-adv-x="1404" d="M188 530q0 -276 132 -415.5t380 -139.5q246 0 381.5 141.5t135.5 413.5v914h-121v-916q0 -219 -104.5 -326.5t-291.5 -107.5q-186 0 -286.5 107.5t-100.5 326.5v916h-125v-914zM436 1647q0 -41 27.5 -68t68.5 -27q39 0 67 27t28 68t-28 69.5t-67 28.5q-41 0 -68.5 -28.5 t-27.5 -69.5zM780 1647q0 -41 27.5 -68t66.5 -27q41 0 69 27t28 68t-28 69.5t-69 28.5q-39 0 -66.5 -28.5t-27.5 -69.5z" />
<glyph unicode="&#xdd;" horiz-adv-x="1288" d="M61 1444l523 -889v-555h123v559l520 885h-131l-451 -766l-448 766h-136zM573 1534h86l185 348h-154z" />
<glyph unicode="&#xde;" horiz-adv-x="1206" d="M195 0h124v291h119q340 0 506 122t166 353q0 229 -167 350t-523 121h-101v207h-124v-1444zM319 412v704h127q279 0 409 -89t130 -263q0 -176 -129 -264t-410 -88h-127z" />
<glyph unicode="&#xdf;" horiz-adv-x="1134" d="M170 0h119v819h520l-305 -426v-16q86 -12 161.5 -33.5t132 -60.5t90.5 -96.5t34 -141.5t-38 -144.5t-104.5 -100.5t-157 -61.5t-194.5 -27.5v-119q129 8 241.5 38t195.5 84.5t130 136t47 194.5q0 96 -30.5 166t-80.5 117t-114.5 76.5t-132.5 48.5l332 465v16h-727v194 q0 68 13 111t36.5 67.5t55.5 34t69 9.5q23 0 47.5 -3.5t46.5 -7.5l16 113q-55 12 -112 12q-61 0 -114.5 -17t-92.5 -56t-61.5 -101.5t-22.5 -152.5v-1137z" />
<glyph unicode="&#xe0;" horiz-adv-x="960" d="M92 236q0 -117 78 -182.5t201 -65.5q98 0 177 26.5t144 71.5l13 -86h96v524q0 94 -13.5 170t-46 129.5t-91 82t-146.5 28.5q-47 0 -95.5 -6t-91.5 -15.5t-79.5 -19.5t-61.5 -21l31 -104q55 16 122.5 32.5t159.5 16.5q113 0 150 -62.5t41 -179.5q-133 -6 -241.5 -26.5 t-185.5 -60t-119 -102t-42 -150.5zM211 233q0 123 122 174.5t349 59.5v-277q-61 -39 -135 -62.5t-166 -23.5q-86 0 -128 37t-42 92zM279 1411l184 -348h86l-117 348h-153z" />
<glyph unicode="&#xe1;" horiz-adv-x="960" d="M92 236q0 -117 78 -182.5t201 -65.5q98 0 177 26.5t144 71.5l13 -86h96v524q0 94 -13.5 170t-46 129.5t-91 82t-146.5 28.5q-47 0 -95.5 -6t-91.5 -15.5t-79.5 -19.5t-61.5 -21l31 -104q55 16 122.5 32.5t159.5 16.5q113 0 150 -62.5t41 -179.5q-133 -6 -241.5 -26.5 t-185.5 -60t-119 -102t-42 -150.5zM211 233q0 123 122 174.5t349 59.5v-277q-61 -39 -135 -62.5t-166 -23.5q-86 0 -128 37t-42 92zM408 1063h86l184 348h-154z" />
<glyph unicode="&#xe2;" horiz-adv-x="960" d="M92 236q0 -117 78 -182.5t201 -65.5q98 0 177 26.5t144 71.5l13 -86h96v524q0 94 -13.5 170t-46 129.5t-91 82t-146.5 28.5q-47 0 -95.5 -6t-91.5 -15.5t-79.5 -19.5t-61.5 -21l31 -104q55 16 122.5 32.5t159.5 16.5q113 0 150 -62.5t41 -179.5q-133 -6 -241.5 -26.5 t-185.5 -60t-119 -102t-42 -150.5zM195 1063h106l176 201l178 -201h107l-277 393h-14zM211 233q0 123 122 174.5t349 59.5v-277q-61 -39 -135 -62.5t-166 -23.5q-86 0 -128 37t-42 92z" />
<glyph unicode="&#xe3;" horiz-adv-x="960" d="M92 236q0 -117 78 -182.5t201 -65.5q98 0 177 26.5t144 71.5l13 -86h96v524q0 94 -13.5 170t-46 129.5t-91 82t-146.5 28.5q-47 0 -95.5 -6t-91.5 -15.5t-79.5 -19.5t-61.5 -21l31 -104q55 16 122.5 32.5t159.5 16.5q113 0 150 -62.5t41 -179.5q-133 -6 -241.5 -26.5 t-185.5 -60t-119 -102t-42 -150.5zM170 1073l102 -16q12 59 29.5 104t56.5 45q25 0 51.5 -23.5t55.5 -51t61.5 -51t73.5 -23.5q39 0 69.5 20.5t52 56t37 82t25.5 95.5l-102 16q-14 -63 -30.5 -108t-51.5 -45q-23 0 -48.5 23.5t-55 51t-64.5 51t-76 23.5q-37 0 -67.5 -19.5 t-54 -53t-40 -80t-24.5 -97.5zM211 233q0 123 122 174.5t349 59.5v-277q-61 -39 -135 -62.5t-166 -23.5q-86 0 -128 37t-42 92z" />
<glyph unicode="&#xe4;" horiz-adv-x="960" d="M92 236q0 -117 78 -182.5t201 -65.5q98 0 177 26.5t144 71.5l13 -86h96v524q0 94 -13.5 170t-46 129.5t-91 82t-146.5 28.5q-47 0 -95.5 -6t-91.5 -15.5t-79.5 -19.5t-61.5 -21l31 -104q55 16 122.5 32.5t159.5 16.5q113 0 150 -62.5t41 -179.5q-133 -6 -241.5 -26.5 t-185.5 -60t-119 -102t-42 -150.5zM211 233q0 123 122 174.5t349 59.5v-277q-61 -39 -135 -62.5t-166 -23.5q-86 0 -128 37t-42 92zM211 1176q0 -41 27.5 -68t68.5 -27q39 0 66.5 27t27.5 68t-27.5 69.5t-66.5 28.5q-41 0 -68.5 -28.5t-27.5 -69.5zM555 1176q0 -41 27.5 -68 t66.5 -27q41 0 68.5 27t27.5 68t-27.5 69.5t-68.5 28.5q-39 0 -66.5 -28.5t-27.5 -69.5z" />
<glyph unicode="&#xe5;" horiz-adv-x="960" d="M92 236q0 -117 78 -182.5t201 -65.5q98 0 177 26.5t144 71.5l13 -86h96v524q0 94 -13.5 170t-46 129.5t-91 82t-146.5 28.5q-47 0 -95.5 -6t-91.5 -15.5t-79.5 -19.5t-61.5 -21l31 -104q55 16 122.5 32.5t159.5 16.5q113 0 150 -62.5t41 -179.5q-133 -6 -241.5 -26.5 t-185.5 -60t-119 -102t-42 -150.5zM211 233q0 123 122 174.5t349 59.5v-277q-61 -39 -135 -62.5t-166 -23.5q-86 0 -128 37t-42 92zM289 1268q0 -43 14 -82t40 -66.5t60.5 -44t73.5 -16.5q82 0 136.5 60.5t54.5 148.5q0 92 -53.5 152.5t-137.5 60.5q-41 0 -74.5 -16.5 t-59.5 -45t-40 -67.5t-14 -84zM369 1268q0 59 31.5 97t76.5 38q47 0 79 -38t32 -97q0 -57 -32 -93t-79 -36q-45 0 -76.5 35.5t-31.5 93.5z" />
<glyph unicode="&#xe6;" horiz-adv-x="1550" d="M92 236q0 -117 78 -182.5t201 -65.5q106 0 204.5 36.5t202.5 114.5q55 -74 140.5 -112.5t193.5 -38.5q41 0 84 6t81 14t68.5 18.5t49.5 20.5l-39 103q-18 -6 -47 -14.5t-62 -15.5t-68.5 -11.5t-66.5 -4.5q-137 0 -220 89.5t-91 242.5h643q-4 147 -36 245.5t-84 157 t-117.5 83t-135.5 24.5q-90 0 -170 -46t-133 -130q-29 78 -91.5 121t-172.5 43q-47 0 -95.5 -6t-91.5 -15.5t-79.5 -19.5t-61.5 -21l31 -104q55 16 122.5 32.5t159.5 16.5q113 0 150 -61.5t41 -180.5q-133 -6 -241.5 -26.5t-185.5 -60t-119 -102t-42 -150.5zM211 233 q0 123 122 174.5t349 57.5q0 -135 45 -242q-80 -59 -164 -89t-182 -30q-86 0 -128 37t-42 92zM807 551q23 129 94.5 203.5t169.5 74.5t163.5 -65.5t78.5 -212.5h-506z" />
<glyph unicode="&#xe7;" horiz-adv-x="876" d="M109 465q0 -98 25.5 -177t71.5 -138.5t107.5 -98.5t135.5 -53l-132 -311h136l104 301q61 2 122.5 16t96.5 33l-37 104q-33 -12 -86 -24.5t-104 -12.5q-66 0 -124 24t-101 70t-68 112.5t-25 154.5t25 155.5t68 113.5t101 70.5t124 24.5q47 0 99 -11t85 -25l41 106 q-43 23 -101.5 35t-123.5 12q-90 0 -170 -32.5t-139.5 -94t-95 -151.5t-35.5 -203z" />
<glyph unicode="&#xe8;" horiz-adv-x="978" d="M109 463q0 -111 30.5 -199t87 -149.5t136 -94t178.5 -32.5q41 0 84 6t80.5 14t68.5 18.5t49 20.5l-39 103q-18 -6 -46.5 -14.5t-61.5 -15.5t-69 -11.5t-66 -4.5q-137 0 -220.5 89t-91.5 243h643q-4 147 -35.5 245.5t-84 157t-118 83t-134.5 24.5q-78 0 -148.5 -34.5 t-124 -98t-86 -153t-32.5 -197.5zM236 551q23 129 94 203.5t170 74.5q98 0 163.5 -65.5t77.5 -212.5h-505zM291 1411l184 -348h86l-117 348h-153z" />
<glyph unicode="&#xe9;" horiz-adv-x="978" d="M109 463q0 -111 30.5 -199t87 -149.5t136 -94t178.5 -32.5q41 0 84 6t80.5 14t68.5 18.5t49 20.5l-39 103q-18 -6 -46.5 -14.5t-61.5 -15.5t-69 -11.5t-66 -4.5q-137 0 -220.5 89t-91.5 243h643q-4 147 -35.5 245.5t-84 157t-118 83t-134.5 24.5q-78 0 -148.5 -34.5 t-124 -98t-86 -153t-32.5 -197.5zM236 551q23 129 94 203.5t170 74.5q98 0 163.5 -65.5t77.5 -212.5h-505zM420 1063h86l184 348h-153z" />
<glyph unicode="&#xea;" horiz-adv-x="978" d="M109 463q0 -111 30.5 -199t87 -149.5t136 -94t178.5 -32.5q41 0 84 6t80.5 14t68.5 18.5t49 20.5l-39 103q-18 -6 -46.5 -14.5t-61.5 -15.5t-69 -11.5t-66 -4.5q-137 0 -220.5 89t-91.5 243h643q-4 147 -35.5 245.5t-84 157t-118 83t-134.5 24.5q-78 0 -148.5 -34.5 t-124 -98t-86 -153t-32.5 -197.5zM207 1063h106l176 201l179 -201h106l-276 393h-15zM236 551q23 129 94 203.5t170 74.5q98 0 163.5 -65.5t77.5 -212.5h-505z" />
<glyph unicode="&#xeb;" horiz-adv-x="978" d="M109 463q0 -111 30.5 -199t87 -149.5t136 -94t178.5 -32.5q41 0 84 6t80.5 14t68.5 18.5t49 20.5l-39 103q-18 -6 -46.5 -14.5t-61.5 -15.5t-69 -11.5t-66 -4.5q-137 0 -220.5 89t-91.5 243h643q-4 147 -35.5 245.5t-84 157t-118 83t-134.5 24.5q-78 0 -148.5 -34.5 t-124 -98t-86 -153t-32.5 -197.5zM221 1176q0 -41 27.5 -68t68.5 -27q39 0 67 27t28 68t-28 69.5t-67 28.5q-41 0 -68.5 -28.5t-27.5 -69.5zM236 551q23 129 94 203.5t170 74.5q98 0 163.5 -65.5t77.5 -212.5h-505zM565 1176q0 -41 27.5 -68t66.5 -27q41 0 69 27t28 68 t-28 69.5t-69 28.5q-39 0 -66.5 -28.5t-27.5 -69.5z" />
<glyph unicode="&#xec;" horiz-adv-x="477" d="M23 1411l184 -348h86l-117 348h-153zM178 0h119v934h-119v-934z" />
<glyph unicode="&#xed;" horiz-adv-x="477" d="M178 0h119v934h-119v-934zM184 1063h86l185 348h-154z" />
<glyph unicode="&#xee;" horiz-adv-x="477" d="M-45 1063h106l177 201l178 -201h106l-276 393h-15zM178 0h119v934h-119v-934z" />
<glyph unicode="&#xef;" horiz-adv-x="477" d="M-29 1176q0 -41 28 -68t69 -27q39 0 66.5 27t27.5 68t-28 69.5t-66 28.5q-41 0 -69 -28.5t-28 -69.5zM178 0h119v934h-119v-934zM315 1176q0 -41 28 -68t67 -27q41 0 68.5 27t27.5 68t-27.5 69.5t-68.5 28.5q-39 0 -67 -28.5t-28 -69.5z" />
<glyph unicode="&#xf0;" horiz-adv-x="1087" d="M115 465q0 -111 33.5 -200t92 -150.5t136.5 -94t164 -32.5q88 0 165.5 31.5t136 98t93.5 171t35 252.5q0 209 -35 364.5t-94 274.5l168 59v119l-224 -80q-35 53 -73.5 99t-79.5 87l-80 -75q35 -33 64.5 -71t58.5 -79l-152 -53v-119l209 74q78 -154 103 -340 q-18 25 -45 51.5t-64 47t-83 33.5t-101 13q-88 0 -166 -33.5t-136.5 -96t-92 -152t-33.5 -199.5zM236 463q0 86 23.5 153.5t65.5 114.5t97 72.5t119 25.5q63 0 119.5 -25.5t98.5 -72.5t66.5 -114.5t24.5 -153.5t-24.5 -152.5t-66.5 -112.5t-98.5 -70t-119.5 -24t-118.5 24 t-97.5 70t-65.5 112.5t-23.5 152.5z" />
<glyph unicode="&#xf1;" horiz-adv-x="1077" d="M170 0h119v756q47 20 123.5 40.5t175.5 20.5q63 0 104 -21.5t64.5 -64.5t33 -106.5t9.5 -145.5v-479h119v537q0 193 -75 295t-241 102q-104 0 -187 -23.5t-136 -48.5l-11 72h-98v-934zM231 1073l103 -16q12 59 29.5 104t56.5 45q25 0 51.5 -23.5t55 -51t61.5 -51 t74 -23.5q39 0 69.5 20.5t52 56t37 82t25.5 95.5l-103 16q-14 -63 -30.5 -108t-50.5 -45q-23 0 -48.5 23.5t-55.5 51t-64.5 51t-75.5 23.5q-37 0 -68 -19.5t-54.5 -53t-39.5 -80t-25 -97.5z" />
<glyph unicode="&#xf2;" horiz-adv-x="1073" d="M109 465q0 -111 33.5 -200t92 -150.5t136.5 -94t164 -32.5q88 0 165.5 32.5t136 94t93.5 150.5t35 200t-35 200t-93.5 151.5t-136 96t-165.5 33.5q-86 0 -164 -33.5t-136.5 -96t-92 -152t-33.5 -199.5zM229 463q0 86 23.5 153.5t65.5 114.5t97.5 72.5t119.5 25.5 q63 0 119.5 -25.5t98.5 -72.5t66.5 -114.5t24.5 -153.5t-24.5 -152.5t-66.5 -112.5t-98.5 -70t-119.5 -24t-119 24t-98 70t-65.5 112.5t-23.5 152.5zM338 1411l184 -348h86l-116 348h-154z" />
<glyph unicode="&#xf3;" horiz-adv-x="1073" d="M109 465q0 -111 33.5 -200t92 -150.5t136.5 -94t164 -32.5q88 0 165.5 32.5t136 94t93.5 150.5t35 200t-35 200t-93.5 151.5t-136 96t-165.5 33.5q-86 0 -164 -33.5t-136.5 -96t-92 -152t-33.5 -199.5zM229 463q0 86 23.5 153.5t65.5 114.5t97.5 72.5t119.5 25.5 q63 0 119.5 -25.5t98.5 -72.5t66.5 -114.5t24.5 -153.5t-24.5 -152.5t-66.5 -112.5t-98.5 -70t-119.5 -24t-119 24t-98 70t-65.5 112.5t-23.5 152.5zM467 1063h86l184 348h-153z" />
<glyph unicode="&#xf4;" horiz-adv-x="1073" d="M109 465q0 -111 33.5 -200t92 -150.5t136.5 -94t164 -32.5q88 0 165.5 32.5t136 94t93.5 150.5t35 200t-35 200t-93.5 151.5t-136 96t-165.5 33.5q-86 0 -164 -33.5t-136.5 -96t-92 -152t-33.5 -199.5zM229 463q0 86 23.5 153.5t65.5 114.5t97.5 72.5t119.5 25.5 q63 0 119.5 -25.5t98.5 -72.5t66.5 -114.5t24.5 -153.5t-24.5 -152.5t-66.5 -112.5t-98.5 -70t-119.5 -24t-119 24t-98 70t-65.5 112.5t-23.5 152.5zM254 1063h106l177 201l178 -201h106l-276 393h-15z" />
<glyph unicode="&#xf5;" horiz-adv-x="1073" d="M109 465q0 -111 33.5 -200t92 -150.5t136.5 -94t164 -32.5q88 0 165.5 32.5t136 94t93.5 150.5t35 200t-35 200t-93.5 151.5t-136 96t-165.5 33.5q-86 0 -164 -33.5t-136.5 -96t-92 -152t-33.5 -199.5zM229 463q0 86 23.5 153.5t65.5 114.5t97.5 72.5t119.5 25.5 q63 0 119.5 -25.5t98.5 -72.5t66.5 -114.5t24.5 -153.5t-24.5 -152.5t-66.5 -112.5t-98.5 -70t-119.5 -24t-119 24t-98 70t-65.5 112.5t-23.5 152.5zM229 1073l103 -16q12 59 29.5 104t56.5 45q25 0 51.5 -23.5t55 -51t61 -51t73.5 -23.5q39 0 70 20.5t52.5 56t37 82 t25.5 95.5l-103 16q-14 -63 -30.5 -108t-51.5 -45q-23 0 -48 23.5t-55 51t-64.5 51t-75.5 23.5q-37 0 -68 -19.5t-54.5 -53t-39.5 -80t-25 -97.5z" />
<glyph unicode="&#xf6;" horiz-adv-x="1073" d="M109 465q0 -111 33.5 -200t92 -150.5t136.5 -94t164 -32.5q88 0 165.5 32.5t136 94t93.5 150.5t35 200t-35 200t-93.5 151.5t-136 96t-165.5 33.5q-86 0 -164 -33.5t-136.5 -96t-92 -152t-33.5 -199.5zM229 463q0 86 23.5 153.5t65.5 114.5t97.5 72.5t119.5 25.5 q63 0 119.5 -25.5t98.5 -72.5t66.5 -114.5t24.5 -153.5t-24.5 -152.5t-66.5 -112.5t-98.5 -70t-119.5 -24t-119 24t-98 70t-65.5 112.5t-23.5 152.5zM270 1176q0 -41 28 -68t69 -27q39 0 66.5 27t27.5 68t-27.5 69.5t-66.5 28.5q-41 0 -69 -28.5t-28 -69.5zM614 1176 q0 -41 28 -68t67 -27q41 0 68.5 27t27.5 68t-27.5 69.5t-68.5 28.5q-39 0 -67 -28.5t-28 -69.5z" />
<glyph unicode="&#xf7;" horiz-adv-x="1138" d="M182 649h774v115h-774v-115zM473 369q0 -41 27.5 -69t68.5 -28t69 28t28 69t-28 68.5t-69 27.5t-68.5 -27.5t-27.5 -68.5zM473 1036q0 -41 27.5 -68.5t68.5 -27.5t69 27.5t28 68.5t-28 69t-69 28t-68.5 -28t-27.5 -69z" />
<glyph unicode="&#xf8;" horiz-adv-x="1073" d="M109 465q0 -133 47 -232.5t125 -160.5l-93 -185h115l68 133q82 -33 164 -32q88 0 165.5 32.5t136 94t93.5 150.5t35 200q0 135 -48.5 235.5t-128.5 159.5l95 189h-115l-68 -136q-82 33 -165 33q-86 0 -164 -33.5t-136.5 -96t-92 -152t-33.5 -199.5zM229 463 q0 86 23.5 153.5t65.5 114.5t97.5 72.5t119.5 25.5q57 0 112 -22l-311 -627q-49 47 -78 118t-29 165zM422 125l311 625q51 -47 81 -120t30 -167q0 -86 -24.5 -152.5t-66.5 -112.5t-98.5 -70t-119.5 -24q-55 0 -113 21z" />
<glyph unicode="&#xf9;" horiz-adv-x="1069" d="M160 387q0 -193 74.5 -295t240.5 -102q102 0 183 22.5t135 44.5l8 -57h98v934h-119v-770q-47 -20 -122.5 -39t-168.5 -19q-63 0 -104 22t-64.5 65t-32.5 105t-9 146v490h-119v-547zM336 1411l184 -348h86l-117 348h-153z" />
<glyph unicode="&#xfa;" horiz-adv-x="1069" d="M160 387q0 -193 74.5 -295t240.5 -102q102 0 183 22.5t135 44.5l8 -57h98v934h-119v-770q-47 -20 -122.5 -39t-168.5 -19q-63 0 -104 22t-64.5 65t-32.5 105t-9 146v490h-119v-547zM465 1063h86l184 348h-153z" />
<glyph unicode="&#xfb;" horiz-adv-x="1069" d="M160 387q0 -193 74.5 -295t240.5 -102q102 0 183 22.5t135 44.5l8 -57h98v934h-119v-770q-47 -20 -122.5 -39t-168.5 -19q-63 0 -104 22t-64.5 65t-32.5 105t-9 146v490h-119v-547zM252 1063h106l177 201l178 -201h106l-276 393h-15z" />
<glyph unicode="&#xfc;" horiz-adv-x="1069" d="M160 387q0 -193 74.5 -295t240.5 -102q102 0 183 22.5t135 44.5l8 -57h98v934h-119v-770q-47 -20 -122.5 -39t-168.5 -19q-63 0 -104 22t-64.5 65t-32.5 105t-9 146v490h-119v-547zM268 1176q0 -41 28 -68t69 -27q39 0 66.5 27t27.5 68t-28 69.5t-66 28.5 q-41 0 -69 -28.5t-28 -69.5zM612 1176q0 -41 28 -68t67 -27q41 0 68.5 27t27.5 68t-27.5 69.5t-68.5 28.5q-39 0 -67 -28.5t-28 -69.5z" />
<glyph unicode="&#xfd;" horiz-adv-x="946" d="M41 934l365 -909l-170 -410h120l549 1319h-121l-315 -758l-303 758h-125zM434 1063h86l185 348h-154z" />
<glyph unicode="&#xfe;" d="M170 -385h119v420q53 -23 122.5 -35t129.5 -12q102 0 181 35.5t131 99t78.5 150.5t26.5 190q0 104 -26.5 191t-78.5 148.5t-131 96.5t-181 35q-59 0 -129 -20.5t-123 -45.5v596h-119v-1849zM289 145v611q59 29 123.5 45t117.5 16q82 0 140.5 -29.5t95.5 -80t54.5 -115 t17.5 -131.5q0 -68 -17.5 -132.5t-54.5 -113.5t-95.5 -80t-140.5 -31q-55 0 -116.5 11.5t-124.5 29.5z" />
<glyph unicode="&#xff;" horiz-adv-x="946" d="M41 934l365 -909l-170 -410h120l549 1319h-121l-315 -758l-303 758h-125zM217 1176q0 -41 27.5 -68t68.5 -27q39 0 67 27t28 68t-28 69.5t-67 28.5q-41 0 -68.5 -28.5t-27.5 -69.5zM561 1176q0 -41 27.5 -68t66.5 -27q41 0 69 27t28 68t-28 69.5t-69 28.5 q-39 0 -66.5 -28.5t-27.5 -69.5z" />
<glyph unicode="&#x152;" horiz-adv-x="1959" d="M195 721q0 -360 200.5 -540.5t612.5 -180.5h831v121h-661v541h510v120h-510v541h639v121h-809q-412 0 -612.5 -181.5t-200.5 -541.5zM322 725q0 295 154.5 446.5t469.5 151.5h107v-1202h-107q-317 0 -470.5 154.5t-153.5 449.5z" />
<glyph unicode="&#x153;" horiz-adv-x="1714" d="M109 465q0 -111 33.5 -200t92 -150.5t136.5 -94t164 -32.5q117 0 214 57t152 166q51 -109 146.5 -166t228.5 -57q41 0 84 6t81 14t68.5 18.5t49.5 20.5l-39 103q-18 -6 -47 -14.5t-62 -15.5t-68.5 -11.5t-66.5 -4.5q-137 0 -220 89.5t-91 242.5h643q-4 147 -36 245.5 t-84 157t-117.5 83t-135.5 24.5q-104 0 -191.5 -60.5t-140.5 -170.5q-53 111 -151.5 171t-216.5 60q-86 0 -164 -33.5t-136.5 -96t-92 -152t-33.5 -199.5zM229 463q0 86 23.5 153.5t65.5 114.5t97.5 72.5t119.5 25.5q63 0 119.5 -25.5t98.5 -72.5t66.5 -114.5t24.5 -153.5 t-24.5 -152.5t-66.5 -112.5t-98.5 -70t-119.5 -24t-119 24t-98 70t-65.5 112.5t-23.5 152.5zM971 551q23 129 94.5 203.5t169.5 74.5t163.5 -65.5t78.5 -212.5h-506z" />
<glyph unicode="&#x178;" horiz-adv-x="1288" d="M61 1444l523 -889v-555h123v559l520 885h-131l-451 -766l-448 766h-136zM377 1647q0 -41 27.5 -68t68.5 -27q39 0 66.5 27t27.5 68t-27.5 69.5t-66.5 28.5q-41 0 -68.5 -28.5t-27.5 -69.5zM721 1647q0 -41 27.5 -68t66.5 -27q41 0 68.5 27t27.5 68t-27.5 69.5t-68.5 28.5 q-39 0 -66.5 -28.5t-27.5 -69.5z" />
<glyph unicode="&#x2c6;" d="M254 1063h106l177 201l178 -201h106l-276 393h-15z" />
<glyph unicode="&#x2dc;" d="M229 1073l103 -16q12 59 29.5 104t56.5 45q25 0 51.5 -23.5t55 -51t61 -51t73.5 -23.5q39 0 70 20.5t52.5 56t37 82t25.5 95.5l-103 16q-14 -63 -30.5 -108t-51.5 -45q-23 0 -48 23.5t-55 51t-64.5 51t-75.5 23.5q-37 0 -68 -19.5t-54.5 -53t-39.5 -80t-25 -97.5z" />
<glyph unicode="&#x2000;" horiz-adv-x="963" />
<glyph unicode="&#x2001;" horiz-adv-x="1927" />
<glyph unicode="&#x2002;" horiz-adv-x="963" />
<glyph unicode="&#x2003;" horiz-adv-x="1927" />
<glyph unicode="&#x2004;" horiz-adv-x="642" />
<glyph unicode="&#x2005;" horiz-adv-x="481" />
<glyph unicode="&#x2006;" horiz-adv-x="321" />
<glyph unicode="&#x2007;" horiz-adv-x="321" />
<glyph unicode="&#x2008;" horiz-adv-x="240" />
<glyph unicode="&#x2009;" horiz-adv-x="385" />
<glyph unicode="&#x200a;" horiz-adv-x="107" />
<glyph unicode="&#x2010;" horiz-adv-x="1056" d="M182 547h692v115h-692v-115z" />
<glyph unicode="&#x2011;" horiz-adv-x="1056" d="M182 547h692v115h-692v-115z" />
<glyph unicode="&#x2012;" horiz-adv-x="1056" d="M182 547h692v115h-692v-115z" />
<glyph unicode="&#x2013;" horiz-adv-x="1503" d="M182 547h1139v115h-1139v-115z" />
<glyph unicode="&#x2014;" horiz-adv-x="1892" d="M182 547h1528v115h-1528v-115z" />
<glyph unicode="&#x2018;" horiz-adv-x="569" d="M160 1444l164 -510h88l-103 510h-149z" />
<glyph unicode="&#x2019;" horiz-adv-x="569" d="M158 934h88l164 510h-148z" />
<glyph unicode="&#x201a;" horiz-adv-x="569" d="M158 -340h88l164 494h-148z" />
<glyph unicode="&#x201c;" horiz-adv-x="907" d="M160 1444l164 -510h88l-103 510h-149zM498 1444l164 -510h88l-105 510h-147z" />
<glyph unicode="&#x201d;" horiz-adv-x="907" d="M158 934h88l164 510h-148zM496 934h88l164 510h-150z" />
<glyph unicode="&#x201e;" horiz-adv-x="907" d="M158 -340h88l164 494h-148zM496 -340h88l164 494h-150z" />
<glyph unicode="&#x2022;" horiz-adv-x="911" d="M190 657q0 -72 20.5 -130t56.5 -100t84.5 -65.5t103.5 -23.5t103 23.5t85 65.5t57.5 101.5t20.5 133.5q0 72 -20.5 131t-57.5 101t-85 65.5t-103 23.5t-103.5 -23.5t-84.5 -65.5t-56.5 -102.5t-20.5 -134.5z" />
<glyph unicode="&#x2026;" horiz-adv-x="1232" d="M166 74q0 -41 27.5 -67.5t66.5 -26.5t65.5 26.5t26.5 67.5t-26.5 69.5t-65.5 28.5t-66.5 -28.5t-27.5 -69.5zM522 74q0 -41 26.5 -67.5t67.5 -26.5q39 0 66 26.5t27 67.5t-27 69.5t-66 28.5q-41 0 -67.5 -28.5t-26.5 -69.5zM879 74q0 -41 27.5 -67.5t66.5 -26.5 q41 0 68.5 26.5t27.5 67.5t-27.5 69.5t-68.5 28.5q-39 0 -66.5 -28.5t-27.5 -69.5z" />
<glyph unicode="&#x202f;" horiz-adv-x="385" />
<glyph unicode="&#x2039;" horiz-adv-x="684" d="M152 467l237 -467h129l-237 467l237 467h-129z" />
<glyph unicode="&#x203a;" horiz-adv-x="684" d="M168 0h129l238 467l-238 467h-129l235 -467z" />
<glyph unicode="&#x205f;" horiz-adv-x="481" />
<glyph unicode="&#x20ac;" horiz-adv-x="1216" d="M76 502h231q25 -133 81 -230.5t133 -161t172 -93t198 -29.5q76 0 143.5 15t112.5 38l-35 109q-29 -10 -87 -27t-134 -17q-172 0 -293 98.5t-166 297.5h510v108h-526q-2 27 -3 52.5t-1 54.5q0 66 6 125h524v108h-506q47 188 165 281.5t284 93.5q47 0 108.5 -10t114.5 -29 l35 111q-27 12 -96.5 29.5t-163.5 17.5q-98 0 -189.5 -30t-167 -90t-132 -153.5t-83.5 -220.5h-235v-108h219q-6 -61 -6 -127q0 -29 1 -54.5t3 -50.5h-217v-108z" />
<glyph unicode="&#x2122;" horiz-adv-x="1603" d="M74 1350h237v-777h105v777h233v94h-575v-94zM727 573h96l19 519l231 -523h31l235 525l17 -521h100l-31 881h-36l-297 -676l-295 676h-37z" />
<glyph unicode="&#x25fc;" horiz-adv-x="931" d="M0 0v932h932v-932h-932z" />
<glyph unicode="&#xfb01;" horiz-adv-x="1163" d="M66 819h172v-819h118v819h508v-819h119v934h-627v115q0 88 13.5 146t44 92t83 47.5t132.5 13.5q66 0 139.5 -9.5t140.5 -25.5l21 112q-66 16 -147 27.5t-158 11.5q-98 0 -171 -20.5t-121 -69.5t-71.5 -128t-23.5 -195v-117h-172v-115z" />
<glyph unicode="&#xfb02;" horiz-adv-x="1163" d="M66 819h172v-819h118v819h228v115h-228v115q0 88 13.5 146t44 92t83 47.5t132.5 13.5q55 0 115.5 -7.5t119.5 -19.5v-1321h119v1434h-88q-61 14 -131 22t-139 8q-98 0 -171 -20.5t-121 -69.5t-71.5 -128t-23.5 -195v-117h-172v-115z" />
</font>
</defs>
</svg>
