<?xml version="1.0" encoding="utf-8"?>
<!-- Generator: Adobe Illustrator 22.0.1, SVG Export Plug-In . SVG Version: 6.00 Build 0)  -->
<svg version="1.1" id="Neu" xmlns="http://www.w3.org/2000/svg" xmlns:xlink="http://www.w3.org/1999/xlink" x="0px" y="0px"
	 viewBox="0 0 741.0319824 151.5591125" style="enable-background:new 0 0 741.0319824 151.5591125;" xml:space="preserve">
<style type="text/css">
	.st0{fill:#FFFFFF;}
	.st1{fill-rule:evenodd;clip-rule:evenodd;fill:#CAA54F;}
	.st2{fill-rule:evenodd;clip-rule:evenodd;}
</style>
<path class="st0" d="M713.4406738,128.0236969h-8.0681152v-18.4003906c0-4.2216797-2.2058105-5.671875-5.6098633-5.671875
	c-3.1520996,0-5.5480957,1.7636719-6.934082,3.5302734v20.5419922h-8.0058594V97.5871735h8.0058594v3.90625
	c1.9541016-2.2675781,5.736084-4.6621094,10.6520996-4.6621094c6.7458496,0,9.9599609,3.7802734,9.9599609,9.7041016V128.0236969z"
	/>
<path class="st0" d="M641.982666,128.0236969h-8.0678711v-19.2197266c0-2.8359375-1.2600098-4.8525391-4.5380859-4.8525391
	c-2.8381348,0-5.1699219,1.8896484-6.3039551,3.5302734v20.5419922h-8.0681152v-19.2197266
	c0-2.8359375-1.2600098-4.8525391-4.5380859-4.8525391c-2.7739258,0-5.105957,1.8896484-6.3039551,3.5302734v20.5419922h-8.0058594
	V97.5871735h8.0058594v3.90625c1.3239746-1.7636719,5.2941895-4.6621094,9.9599609-4.6621094
	c4.4741211,0,7.3740234,2.0800781,8.4460449,5.4824219c1.7641602-2.7099609,5.7980957-5.4824219,10.4641113-5.4824219
	c5.6098633,0,8.9499512,2.9619141,8.9499512,9.2001953V128.0236969z"/>
<path class="st0" d="M679.0046387,113.5295563c0-9.8916016-6.1140137-16.6982422-15.2539062-16.6982422
	c-9.2041016,0-15.7600098,7.1201172-15.7600098,15.9423828c0,9.7675781,6.9980469,16.0058594,16.263916,16.0058594
	c4.7260742,0,9.5180664-1.4501953,12.5439453-4.2216797l-3.5939941-5.2939453
	c-1.9538574,1.8916016-5.4838867,2.9619141-8.0678711,2.9619141c-5.1679688,0-8.1940918-3.0878906-8.7619629-6.8066406h22.6298828
	V113.5295563z M656.3127441,109.8752594c0.3139648-3.0253906,2.4580078-6.4892578,7.4379883-6.4892578
	c5.2939453,0,7.3120117,3.5898438,7.5639648,6.4892578H656.3127441z"/>
<g>
	<circle class="st1" cx="75.7795563" cy="75.7795563" r="75.7795563"/>
	<g>
		<polygon class="st2" points="186.5392456,2.4445019 368.2055359,2.4445019 367.9325562,70.8905563 741.0319824,70.8905563 
			741.0319824,149.1146088 186.5392456,149.1146088 		"/>
		<path class="st0" d="M711.6498413,126.8639145h-7.8890381v-17.9919128c0-4.1279602-2.1568604-5.5459671-5.4853516-5.5459671
			c-3.0820923,0-5.4249268,1.7245255-6.7801514,3.4519043v20.0859756h-7.828125v-29.760849h7.828125v3.8195343
			c1.9107666-2.217247,5.6087646-4.5586166,10.4156494-4.5586166c6.5961304,0,9.7388916,3.6963501,9.7388916,9.488678V126.8639145z"
			/>
		<path class="st0" d="M641.7781372,126.8639145h-7.8887939v-18.7930603c0-2.7729797-1.2320557-4.7448196-4.4373169-4.7448196
			c-2.7751465,0-5.0551758,1.847702-6.1640015,3.4519043v20.0859756h-7.8890381v-18.7930603
			c0-2.7729797-1.2320557-4.7448196-4.4373169-4.7448196c-2.7124023,0-4.9926147,1.847702-6.1640625,3.4519043v20.0859756h-7.828125
			v-29.760849h7.828125v3.8195343c1.2946167-1.7245255,5.1766968-4.5586166,9.7388916-4.5586166
			c4.3748169,0,7.2103271,2.0338974,8.2585449,5.3607178c1.7249756-2.6498032,5.6693726-5.3607178,10.2318115-5.3607178
			c5.4853516,0,8.7512817,2.8961639,8.7512817,8.9959564V126.8639145z"/>
		<path class="st0" d="M589.184082,126.8639145h-7.8887329v-18.7930603c0-2.7729797-1.2320557-4.7448196-4.4373779-4.7448196
			c-2.7749023,0-5.0551758,1.847702-6.1640015,3.4519043v20.0859756h-7.8890381v-18.7930603
			c0-2.7729797-1.2339478-4.7448196-4.4370728-4.7448196c-2.7123413,0-4.9926147,1.847702-6.1640015,3.4519043v20.0859756
			h-7.8283691v-29.760849h7.8283691v3.8195343c1.2945557-1.7245255,5.1763916-4.5586166,9.7388306-4.5586166
			c4.3745728,0,7.2103271,2.0338974,8.2585449,5.3607178c1.7247925-2.6498032,5.6691284-5.3607178,10.2315674-5.3607178
			c5.4855957,0,8.7512817,2.8961639,8.7512817,8.9959564V126.8639145z"/>
		<polygon class="st0" points="505.382782,126.8639145 495.583313,126.8639145 487.6943054,115.4043579 484.1194458,119.2229385 
			484.1194458,126.8639145 476.2913208,126.8639145 476.2913208,85.7666855 484.1194458,85.7666855 484.1194458,110.3511124 
			495.3994751,97.1030655 505.0132446,97.1030655 493.2424011,110.5974731 		"/>
		<path class="st0" d="M468.5684509,126.8639145h-7.8887634v-17.9919128c0-4.1279602-2.1589966-5.5459671-5.4854431-5.5459671
			c-3.0821228,0-5.4249268,1.7245255-6.7801514,3.4519043v20.0859756h-7.8282471v-29.760849h7.8282471v3.8195343
			c1.9105835-2.217247,5.6087341-4.5586166,10.4154968-4.5586166c6.5944214,0,9.7388611,3.6963501,9.7388611,9.488678V126.8639145z"
			/>
		<g>
			<rect x="424.97229" y="97.1030655" class="st0" width="7.8282547" height="29.7608547"/>
			<path class="st0" d="M428.8561707,93.8984756c2.5872498,0,4.6836853-2.0950165,4.6836853-4.6817932
				c0-2.587738-2.0964355-4.6216431-4.6836853-4.6216431c-2.5266418,0-4.6230774,2.033905-4.6230774,4.6216431
				C424.2330933,91.8034592,426.3295288,93.8984756,428.8561707,93.8984756z"/>
		</g>
		<path class="st0" d="M347.0075989,126.8639145h-7.8893738v-17.9919128c0-4.1279602-2.157196-5.5459671-5.4854431-5.5459671
			c-3.0817566,0-5.4238586,1.7245255-6.7797852,3.4519043v20.0859756h-7.8277893v-29.760849h7.8277893v3.8195343
			c1.910614-2.217247,5.6086121-4.5586166,10.4162292-4.5586166c6.5949097,0,9.7383728,3.6963501,9.7383728,9.488678V126.8639145z"
			/>
		<path class="st0" d="M311.2398071,126.8639145h-7.8276367v-3.7584152
			c-2.0340271,2.2172394-5.6088867,4.4974976-10.4779663,4.4974976c-6.5332947,0-9.6150513-3.5731735-9.6150513-9.3655014
			V97.1030655h7.8276367v18.0549316c0,4.1279678,2.157196,5.4829407,5.4854431,5.4829407
			c3.0202942,0,5.4238586-1.66436,6.7799377-3.3888779V97.1030655h7.8276367V126.8639145z"/>
		<path class="st0" d="M268.9388428,126.8639145h-7.8277893v-29.760849h7.8277893v4.0057297
			c2.1569519-2.5877304,5.7936096-4.744812,9.4916382-4.744812v7.640976c-0.5547791-0.1231766-1.2327576-0.186203-2.157196-0.186203
			c-2.5886841,0-6.0402222,1.4791183-7.3344421,3.3888855V126.8639145z"/>
		<path class="st0" d="M236.8690643,127.6029968c-12.0804749,0-21.9420319-8.3170319-21.9420319-21.2576141
			c0-13.0007401,9.861557-21.2576218,21.9420319-21.2576218c8.5055084,0,13.8677826,4.3122559,16.9496613,9.1821594
			l-7.2112732,3.9427185c-1.9108429-2.8961639-5.4239807-5.3607178-9.7383881-5.3607178
			c-7.5194702,0-12.9433289,5.7302551-12.9433289,13.4934616c0,7.7641525,5.4238586,13.493454,12.9433289,13.493454
			c3.6364441,0,7.0262756-1.6013412,8.6905212-3.1425171v-4.928154h-10.8477173v-7.6400223h19.599823v15.7737198
			C250.1204681,124.5836563,244.2651215,127.6029968,236.8690643,127.6029968z"/>
		<g>
			<path class="st0" d="M337.7090759,62.3128357h-7.8892517v-17.990963c0-4.1279602-2.157196-5.5459633-5.4854431-5.5459633
				c-3.0819092,0-5.4238586,1.7245216-6.7799377,3.4509506v20.0859756h-7.8276367V32.5529366h7.8276367v3.8195305
				c1.910614-2.2181931,5.6086426-4.5586128,10.4163513-4.5586128c6.5949097,0,9.7382812,3.6963539,9.7382812,9.488678V62.3128357z"
				/>
			<g>
				<rect x="294.1136169" y="32.5529366" class="st0" width="7.8276577" height="29.759901"/>
				<path class="st0" d="M297.9966431,29.3493004c2.5886841,0,4.6842957-2.0959702,4.6842957-4.6837044
					c0-2.5867786-2.0956116-4.6206799-4.6842957-4.6206799c-2.5269775,0-4.6225891,2.0339012-4.6225891,4.6206799
					C293.374054,27.2533302,295.4696655,29.3493004,297.9966431,29.3493004z"/>
			</g>
			<path class="st0" d="M232.1314087,21.2165565h-16.2099762v41.0962791h16.2718048
				c12.8199158,0,21.757019-8.1327438,21.757019-20.5786972C253.9502563,29.4104137,245.0131531,21.2165565,232.1314087,21.2165565z
				 M232.1314087,54.6116982h-7.4576416v-25.694006h7.5194702c8.3823242,0,12.8199158,5.606123,12.8199158,12.8164463
				C245.0131531,48.757309,240.2673798,54.6116982,232.1314087,54.6116982z"/>
			<path class="st0" d="M288.423584,48.141407c0-9.6729698-5.9783936-16.3275528-14.9155273-16.3275528
				c-8.9986877,0-15.4088135,6.9620552-15.4088135,15.5875206c0,9.5517006,6.8414917,15.6514931,15.9017944,15.6514931
				c4.6227112,0,9.3068848-1.4179993,12.2653503-4.1289139l-3.5132446-5.1745148
				c-1.910614,1.8486557-5.36203,2.8942528-7.8890076,2.8942528c-5.0541077,0-8.0127869-3.0193405-8.5673523-6.6526756h22.1268005
				V48.141407z M266.235199,44.5682335c0.308197-2.9572754,2.4035645-6.3461571,7.2728577-6.3461571
				c5.1772766,0,7.1496887,3.5120621,7.3960571,6.3461571H266.235199z"/>
		</g>
		<path class="st0" d="M375.1942139,85.7666855v15.1559143c-2.3422241-3.0795059-5.6704712-4.5586166-9.1837158-4.5586166
			c-7.5810547,0-13.1896973,5.9135895-13.1896973,15.5884705c0,9.9813995,5.7320557,15.6505432,13.1896973,15.6505432
			c3.6364441,0,6.8414917-1.6013412,9.1837158-4.560524v3.8214417h7.8891296v-41.097229H375.1942139z M375.1942139,117.2520599
			c-1.294342,1.9708786-4.1296387,3.3888779-6.7182007,3.3888779c-4.4992981,0-7.5810547-3.5120621-7.5810547-8.6884842
			c0-5.114357,3.0817566-8.6264191,7.5810547-8.6264191c2.588562,0,5.4238586,1.4180069,6.7182007,3.3888855V117.2520599z"/>
		<path class="st0" d="M419.2834473,112.6915359c0-9.6720123-5.9793701-16.3275528-14.9164734-16.3275528
			c-8.9986877,0-15.4085999,6.9620514-15.4085999,15.5884705c0,9.5507507,6.8415222,15.6505432,15.9017944,15.6505432
			c4.6225891,0,9.3068848-1.4179993,12.2642822-4.1279602l-3.5121765-5.1764221
			c-1.9107056,1.8496094-5.3622742,2.8961563-7.8893738,2.8961563c-5.0540771,0-8.0124207-3.0193405-8.5671997-6.6555328h22.1277466
			V112.6915359z M397.0941162,109.1183624c0.3081665-2.9582291,2.4037781-6.3451996,7.2728577-6.3451996
			c5.1773682,0,7.1496887,3.5101471,7.3963013,6.3451996H397.0941162z"/>
		<path class="st0" d="M522.7230225,96.3639832c-9.8013916,0-15.7171631,7.1482544-15.7171631,15.5884705
			c0,8.442131,5.9157715,15.6505432,15.7171631,15.6505432c9.8601074,0,15.777771-7.2084122,15.777771-15.6505432
			C538.5007935,103.5122375,532.5831299,96.3639832,522.7230225,96.3639832z M522.7230225,120.6409378
			c-4.8694458,0-7.5817871-4.004776-7.5817871-8.6884842c0-4.6216354,2.7123413-8.6264191,7.5817871-8.6264191
			c4.9300537,0,7.6426392,4.0047836,7.6426392,8.6264191C530.3656616,116.6361618,527.6530762,120.6409378,522.7230225,120.6409378z
			"/>
		<path class="st0" d="M677.9782104,112.6915359c0-9.6720123-5.9782715-16.3275528-14.9152832-16.3275528
			c-8.9997559,0-15.4100952,6.9620514-15.4100952,15.5884705c0,9.5507507,6.8426514,15.6505432,15.902832,15.6505432
			c4.6211548,0,9.3067627-1.4179993,12.2655029-4.1279602l-3.5142212-5.1764221
			c-1.9104614,1.8496094-5.3621826,2.8961563-7.8887939,2.8961563c-5.0532227,0-8.012146-3.0193405-8.5674438-6.6555328h22.1275024
			V112.6915359z M655.7901001,109.1183624c0.3070068-2.9582291,2.4034424-6.3451996,7.2728271-6.3451996
			c5.1764526,0,7.1497192,3.5101471,7.3960571,6.3451996H655.7901001z"/>
	</g>
</g>
</svg>
