<?xml version="1.0" encoding="UTF-8"?>
<svg width="742px" height="152px" viewBox="0 0 742 152" xmlns="http://www.w3.org/2000/svg" xmlns:xlink="http://www.w3.org/1999/xlink" version="1.1">
 <!-- Generated by Pixelmator Pro 1.3.4 -->
 <path id="path" d="M151.559 76.22 C151.559 118.072 117.631 152 75.78 152 33.928 152 0 118.072 0 76.22 0 34.369 33.928 0.441 75.78 0.441 117.631 0.441 151.559 34.369 151.559 76.22 Z" fill="#caa54f" fill-opacity="1" stroke="none"/>
 <path id="path-1" d="M186.539 2.885 L575.088 2.885 575.088 86.238 435.758 86.238 435.758 149.555 186.539 149.555 Z" fill="#000000" fill-opacity="1" stroke="none"/>
 <defs>
  <text id="string" transform="matrix(1.0 0.0 0.0 1.0 293.02243041992 34.75367741698)">
   <tspan x="1.9482421875" y="28.0" font-family="Helvetica, Helvetica" font-size="36" text-decoration="none">I</tspan>
   <tspan x="11.9501953125" y="28.0" font-family="Helvetica, Helvetica" font-size="36" text-decoration="none">l</tspan>
   <tspan x="19.9482421875" y="28.0" font-family="Helvetica, Helvetica" font-size="36" text-decoration="none"> </tspan>
   <tspan x="29.9501953125" y="28.0" font-family="Helvetica, Helvetica" font-size="36" text-decoration="none">t</tspan>
   <tspan x="39.9521484375" y="28.0" font-family="Helvetica, Helvetica" font-size="36" text-decoration="none">u</tspan>
   <tspan x="59.9736328125" y="28.0" font-family="Helvetica, Helvetica" font-size="36" text-decoration="none">e</tspan>
   <tspan x="79.9951171875" y="28.0" font-family="Helvetica, Helvetica" font-size="36" text-decoration="none"> </tspan>
   <tspan x="89.9970703125" y="28.0" font-family="Helvetica, Helvetica" font-size="36" text-decoration="none">r</tspan>
   <tspan x="101.9853515625" y="28.0" font-family="Helvetica, Helvetica" font-size="36" text-decoration="none">e</tspan>
   <tspan x="122.0068359375" y="28.0" font-family="Helvetica, Helvetica" font-size="36" text-decoration="none">d</tspan>
   <tspan x="142.0283203125" y="28.0" font-family="Helvetica, Helvetica" font-size="36" text-decoration="none">i</tspan>
   <tspan x="150.0263671875" y="28.0" font-family="Helvetica, Helvetica" font-size="36" text-decoration="none">t</tspan>
   <tspan x="160.0283203125" y="28.0" font-family="Helvetica, Helvetica" font-size="36" text-decoration="none">t</tspan>
   <tspan x="170.0302734375" y="28.0" font-family="Helvetica, Helvetica" font-size="36" text-decoration="none">o</tspan>
  </text>
 </defs>
 <use id="il-tue-reditto" xlink:href="#string" fill="#000000" fill-opacity="1" stroke="none"/>
 <defs>
  <text id="string-1" transform="matrix(1.0 0.0 0.0 1.0 292.51364135742 99.25367741698)">
   <tspan x="1.95703125" y="28.0" font-family="Helvetica, Helvetica" font-size="36" text-decoration="none">d</tspan>
   <tspan x="21.978515625" y="28.0" font-family="Helvetica, Helvetica" font-size="36" text-decoration="none">i</tspan>
   <tspan x="29.9765625" y="28.0" font-family="Helvetica, Helvetica" font-size="36" text-decoration="none"> </tspan>
   <tspan x="39.978515625" y="28.0" font-family="Helvetica, Helvetica" font-size="36" text-decoration="none">b</tspan>
   <tspan x="60.0" y="28.0" font-family="Helvetica, Helvetica" font-size="36" text-decoration="none">a</tspan>
   <tspan x="80.021484375" y="28.0" font-family="Helvetica, Helvetica" font-size="36" text-decoration="none">s</tspan>
   <tspan x="98.021484375" y="28.0" font-family="Helvetica, Helvetica" font-size="36" text-decoration="none">e</tspan>
  </text>
 </defs>
 <use id="di-base" xlink:href="#string-1" fill="#000000" fill-opacity="1" stroke="none"/>
 <path id="path-2" d="M216.029 62.754 L216.029 21.738 224.761 21.738 224.761 62.754 216.029 62.754 Z" fill="#ffffff" fill-opacity="1" stroke="none"/>
 <path id="path-3" d="M232.695 62.754 L232.695 21.738 240.504 21.738 240.504 62.754 232.695 62.754 Z" fill="#ffffff" fill-opacity="1" stroke="none"/>
 <path id="path-4" d="M265.657 55.313 L265.657 39.879 260.738 39.879 260.738 33.052 265.657 33.052 265.657 24.935 273.467 24.935 273.467 33.052 279.493 33.052 279.493 39.879 273.467 39.879 273.467 53.222 C273.467 55.129 274.451 56.543 276.173 56.543 277.341 56.543 278.448 56.113 278.878 55.621 L280.538 61.586 C279.37 62.631 277.28 63.492 274.02 63.492 268.547 63.492 265.657 60.663 265.657 55.313 Z" fill="#ffffff" fill-opacity="1" stroke="none"/>
 <path id="path-5" d="M304.892 62.754 L304.892 59.003 C302.863 61.217 299.296 63.492 294.438 63.492 287.92 63.492 284.846 59.926 284.846 54.145 L284.846 33.052 292.655 33.052 292.655 51.07 C292.655 55.19 294.807 56.543 298.128 56.543 301.141 56.543 303.539 54.883 304.892 53.161 L304.892 33.052 312.702 33.052 312.702 62.754 304.892 62.754 Z" fill="#ffffff" fill-opacity="1" stroke="none"/>
 <path id="path-6" d="M318.547 47.873 C318.547 39.263 324.943 32.315 333.92 32.315 342.837 32.315 348.802 38.956 348.802 48.61 L348.802 50.456 326.726 50.456 C327.279 54.084 330.231 57.096 335.273 57.096 337.794 57.096 341.238 56.052 343.144 54.207 L346.649 59.372 C343.698 62.078 339.024 63.492 334.412 63.492 325.373 63.492 318.547 57.404 318.547 47.873 Z M333.92 38.71 C329.062 38.71 326.971 42.093 326.664 45.044 L341.3 45.044 C341.053 42.216 339.086 38.71 333.92 38.71 Z" fill="#ffffff" fill-opacity="1" stroke="none"/>
 <path id="path-7" d="M370.268 62.754 L370.268 33.052 378.078 33.052 378.078 37.05 C380.229 34.468 383.858 32.315 387.547 32.315 L387.547 39.94 C386.994 39.817 386.317 39.756 385.395 39.756 382.812 39.756 379.369 41.231 378.078 43.137 L378.078 62.754 370.268 62.754 Z" fill="#ffffff" fill-opacity="1" stroke="none"/>
 <path id="path-8" d="M390.5 47.873 C390.5 39.263 396.896 32.315 405.873 32.315 414.79 32.315 420.755 38.956 420.755 48.61 L420.755 50.456 398.679 50.456 C399.233 54.084 402.184 57.096 407.227 57.096 409.747 57.096 413.191 56.052 415.098 54.207 L418.603 59.372 C415.651 62.078 410.978 63.492 406.366 63.492 397.327 63.492 390.5 57.404 390.5 47.873 Z M405.873 38.71 C401.016 38.71 398.925 42.093 398.618 45.044 L413.252 45.044 C413.007 42.216 411.039 38.71 405.873 38.71 Z" fill="#ffffff" fill-opacity="1" stroke="none"/>
 <path id="path-9" d="M446.831 62.754 L446.831 58.941 C444.495 61.893 441.296 63.492 437.668 63.492 430.228 63.492 424.509 57.835 424.509 47.873 424.509 38.219 430.105 32.315 437.668 32.315 441.174 32.315 444.495 33.791 446.831 36.865 L446.831 21.738 454.703 21.738 454.703 62.754 446.831 62.754 Z M446.831 53.161 L446.831 42.645 C445.539 40.677 442.711 39.263 440.128 39.263 435.639 39.263 432.565 42.768 432.565 47.873 432.565 53.038 435.639 56.543 440.128 56.543 442.711 56.543 445.539 55.129 446.831 53.161 Z" fill="#ffffff" fill-opacity="1" stroke="none"/>
 <path id="path-10" d="M461.716 25.181 C461.716 22.599 463.807 20.57 466.328 20.57 468.911 20.57 471.002 22.599 471.002 25.181 471.002 27.764 468.911 29.855 466.328 29.855 463.807 29.855 461.716 27.764 461.716 25.181 Z M462.454 62.754 L462.454 33.052 470.264 33.052 470.264 62.754 462.454 62.754 Z" fill="#ffffff" fill-opacity="1" stroke="none"/>
 <path id="path-11" d="M479.612 55.313 L479.612 39.879 474.693 39.879 474.693 33.052 479.612 33.052 479.612 24.935 487.421 24.935 487.421 33.052 493.448 33.052 493.448 39.879 487.421 39.879 487.421 53.222 C487.421 55.129 488.406 56.543 490.127 56.543 491.295 56.543 492.403 56.113 492.832 55.621 L494.494 61.586 C493.325 62.631 491.234 63.492 487.975 63.492 482.502 63.492 479.612 60.663 479.612 55.313 Z" fill="#ffffff" fill-opacity="1" stroke="none"/>
 <path id="path-12" d="M500.399 55.313 L500.399 39.879 495.48 39.879 495.48 33.052 500.399 33.052 500.399 24.935 508.208 24.935 508.208 33.052 514.235 33.052 514.235 39.879 508.208 39.879 508.208 53.222 C508.208 55.129 509.193 56.543 510.914 56.543 512.082 56.543 513.19 56.113 513.62 55.621 L515.281 61.586 C514.112 62.631 512.021 63.492 508.762 63.492 503.289 63.492 500.399 60.663 500.399 55.313 Z" fill="#ffffff" fill-opacity="1" stroke="none"/>
 <path id="path-13" d="M517.681 47.873 C517.681 39.448 523.584 32.315 533.362 32.315 543.201 32.315 549.104 39.448 549.104 47.873 549.104 56.298 543.201 63.492 533.362 63.492 523.584 63.492 517.681 56.298 517.681 47.873 Z M540.987 47.873 C540.987 43.26 538.282 39.263 533.362 39.263 528.504 39.263 525.798 43.26 525.798 47.873 525.798 52.546 528.504 56.543 533.362 56.543 538.282 56.543 540.987 52.546 540.987 47.873 Z" fill="#ffffff" fill-opacity="1" stroke="none"/>
 <path id="path-14" d="M235.76 127.254 L235.76 123.441 C233.424 126.393 230.226 127.992 226.598 127.992 219.157 127.992 213.438 122.335 213.438 112.373 213.438 102.719 219.034 96.815 226.598 96.815 230.103 96.815 233.424 98.291 235.76 101.365 L235.76 86.238 243.631 86.238 243.631 127.254 235.76 127.254 Z M235.76 117.661 L235.76 107.145 C234.469 105.177 231.64 103.763 229.057 103.763 224.569 103.763 221.494 107.268 221.494 112.373 221.494 117.538 224.569 121.043 229.057 121.043 231.64 121.043 234.469 119.629 235.76 117.661 Z" fill="#ffffff" fill-opacity="1" stroke="none"/>
 <path id="path-15" d="M250.646 89.681 C250.646 87.099 252.737 85.07 255.258 85.07 257.84 85.07 259.931 87.099 259.931 89.681 259.931 92.264 257.84 94.355 255.258 94.355 252.737 94.355 250.646 92.264 250.646 89.681 Z M251.384 127.254 L251.384 97.552 259.193 97.552 259.193 127.254 251.384 127.254 Z" fill="#ffffff" fill-opacity="1" stroke="none"/>
 <path id="path-16" d="M282.747 127.254 L282.747 86.238 290.557 86.238 290.557 101.365 C292.894 98.291 296.214 96.815 299.719 96.815 307.283 96.815 312.879 102.719 312.879 112.373 312.879 122.335 307.221 127.992 299.719 127.992 296.153 127.992 292.894 126.393 290.557 123.441 L290.557 127.254 282.747 127.254 Z M297.321 121.043 C301.81 121.043 304.823 117.538 304.823 112.373 304.823 107.268 301.81 103.763 297.321 103.763 294.739 103.763 291.91 105.239 290.557 107.207 L290.557 117.722 C291.91 119.629 294.739 121.043 297.321 121.043 Z" fill="#ffffff" fill-opacity="1" stroke="none"/>
 <path id="path-17" d="M336.619 127.254 L336.619 124.118 C334.59 126.578 331.085 127.992 327.21 127.992 322.475 127.992 316.941 124.795 316.941 118.153 316.941 111.142 322.475 108.56 327.21 108.56 331.207 108.56 334.651 109.851 336.619 112.188 L336.619 108.437 C336.619 105.424 334.036 103.456 330.101 103.456 326.965 103.456 324.013 104.686 321.553 106.962 L318.478 101.488 C322.107 98.229 326.78 96.815 331.453 96.815 338.279 96.815 344.49 99.52 344.49 108.068 L344.49 127.254 336.619 127.254 Z M336.619 120.121 L336.619 116.431 C335.328 114.71 332.868 113.787 330.347 113.787 327.272 113.787 324.751 115.447 324.751 118.276 324.751 121.104 327.272 122.704 330.347 122.704 332.868 122.704 335.328 121.843 336.619 120.121 Z" fill="#ffffff" fill-opacity="1" stroke="none"/>
 <path id="path-18" d="M349.598 123.38 L352.98 117.722 C355.194 119.813 359.56 121.843 363.249 121.843 366.631 121.843 368.23 120.552 368.23 118.707 368.23 113.848 350.643 117.845 350.643 106.162 350.643 101.181 354.948 96.815 362.819 96.815 367.8 96.815 371.797 98.537 374.748 100.874 L371.613 106.408 C369.829 104.563 366.448 102.965 362.819 102.965 359.99 102.965 358.145 104.194 358.145 105.854 358.145 110.22 375.794 106.531 375.794 118.522 375.794 123.995 371.12 127.992 362.88 127.992 357.715 127.992 352.734 126.27 349.598 123.38 Z" fill="#ffffff" fill-opacity="1" stroke="none"/>
 <path id="path-19" d="M379.609 112.373 C379.609 103.763 386.004 96.815 394.982 96.815 403.899 96.815 409.864 103.456 409.864 113.11 L409.864 114.956 387.787 114.956 C388.341 118.584 391.292 121.596 396.334 121.596 398.856 121.596 402.299 120.552 404.205 118.707 L407.711 123.872 C404.759 126.578 400.086 127.992 395.474 127.992 386.435 127.992 379.609 121.904 379.609 112.373 Z M394.982 103.21 C390.124 103.21 388.034 106.593 387.726 109.544 L402.361 109.544 C402.116 106.716 400.148 103.21 394.982 103.21 Z" fill="#ffffff" fill-opacity="1" stroke="none"/>
</svg>
