<?xml version="1.0" encoding="UTF-8"?>
<svg width="742px" height="152px" viewBox="0 0 742 152" xmlns="http://www.w3.org/2000/svg" xmlns:xlink="http://www.w3.org/1999/xlink" version="1.1">
 <!-- Generated by Pixelmator Pro 1.3.4 -->
 <path id="path" d="M151.559 76.22 C151.559 118.072 117.631 152 75.78 152 33.928 152 0 118.072 0 76.22 0 34.369 33.928 0.441 75.78 0.441 117.631 0.441 151.559 34.369 151.559 76.22 Z" fill="#caa54f" fill-opacity="1" stroke="none"/>
 <path id="path-1" d="M186.539 2.885 L364.636 2.885 364.636 71.332 601.592 71.332 601.592 149.556 186.539 149.556 Z" fill="#000000" fill-opacity="1" stroke="none"/>
 <path id="path-2" d="M227.467 62.754 L227.467 45.967 211.724 21.738 221.686 21.738 231.833 38.157 241.979 21.738 251.879 21.738 236.199 45.967 236.199 62.754 227.467 62.754 Z" fill="#ffffff" fill-opacity="1" stroke="none"/>
 <path id="path-3" d="M245.98 47.873 C245.98 39.448 251.883 32.315 261.661 32.315 271.499 32.315 277.403 39.448 277.403 47.873 277.403 56.298 271.499 63.492 261.661 63.492 251.883 63.492 245.98 56.298 245.98 47.873 Z M269.286 47.873 C269.286 43.26 266.58 39.263 261.661 39.263 256.803 39.263 254.097 43.26 254.097 47.873 254.097 52.546 256.803 56.543 261.661 56.543 266.58 56.543 269.286 52.546 269.286 47.873 Z" fill="#ffffff" fill-opacity="1" stroke="none"/>
 <path id="path-4" d="M303.295 62.754 L303.295 59.003 C301.266 61.217 297.699 63.492 292.841 63.492 286.323 63.492 283.248 59.926 283.248 54.145 L283.248 33.052 291.058 33.052 291.058 51.07 C291.058 55.19 293.21 56.543 296.531 56.543 299.544 56.543 301.942 54.883 303.295 53.161 L303.295 33.052 311.105 33.052 311.105 62.754 303.295 62.754 Z" fill="#ffffff" fill-opacity="1" stroke="none"/>
 <path id="path-5" d="M318.856 62.754 L318.856 33.052 326.666 33.052 326.666 37.05 C328.818 34.468 332.446 32.315 336.136 32.315 L336.136 39.94 C335.582 39.817 334.906 39.756 333.984 39.756 331.401 39.756 327.957 41.231 326.666 43.137 L326.666 62.754 318.856 62.754 Z" fill="#ffffff" fill-opacity="1" stroke="none"/>
 <path id="path-6" d="M216.845 127.254 L216.845 86.238 224.654 86.238 224.654 101.365 C226.991 98.291 230.311 96.815 233.817 96.815 241.38 96.815 246.976 102.719 246.976 112.373 246.976 122.335 241.319 127.992 233.817 127.992 230.25 127.992 226.991 126.393 224.654 123.441 L224.654 127.254 216.845 127.254 Z M231.418 121.043 C235.908 121.043 238.921 117.538 238.921 112.373 238.921 107.268 235.908 103.763 231.418 103.763 228.836 103.763 226.007 105.239 224.654 107.207 L224.654 117.722 C226.007 119.629 228.836 121.043 231.418 121.043 Z" fill="#ffffff" fill-opacity="1" stroke="none"/>
 <path id="path-7" d="M270.717 127.254 L270.717 124.118 C268.687 126.578 265.182 127.992 261.308 127.992 256.573 127.992 251.039 124.795 251.039 118.153 251.039 111.142 256.573 108.56 261.308 108.56 265.305 108.56 268.749 109.851 270.717 112.188 L270.717 108.437 C270.717 105.424 268.134 103.456 264.199 103.456 261.062 103.456 258.111 104.686 255.651 106.962 L252.576 101.488 C256.204 98.229 260.878 96.815 265.551 96.815 272.377 96.815 278.588 99.52 278.588 108.068 L278.588 127.254 270.717 127.254 Z M270.717 120.121 L270.717 116.431 C269.425 114.71 266.966 113.787 264.444 113.787 261.37 113.787 258.849 115.447 258.849 118.276 258.849 121.104 261.37 122.704 264.444 122.704 266.966 122.704 269.425 121.843 270.717 120.121 Z" fill="#ffffff" fill-opacity="1" stroke="none"/>
 <path id="path-8" d="M283.696 123.38 L287.077 117.722 C289.291 119.813 293.657 121.843 297.347 121.843 300.729 121.843 302.328 120.552 302.328 118.707 302.328 113.848 284.741 117.845 284.741 106.162 284.741 101.181 289.045 96.815 296.916 96.815 301.897 96.815 305.894 98.537 308.846 100.874 L305.71 106.408 C303.927 104.563 300.545 102.965 296.916 102.965 294.088 102.965 292.243 104.194 292.243 105.854 292.243 110.22 309.891 106.531 309.891 118.522 309.891 123.995 305.218 127.992 296.978 127.992 291.812 127.992 286.831 126.27 283.696 123.38 Z" fill="#ffffff" fill-opacity="1" stroke="none"/>
 <path id="path-9" d="M314.875 89.681 C314.875 87.099 316.966 85.07 319.487 85.07 322.07 85.07 324.16 87.099 324.16 89.681 324.16 92.264 322.07 94.355 319.487 94.355 316.966 94.355 314.875 92.264 314.875 89.681 Z M315.613 127.254 L315.613 97.552 323.422 97.552 323.422 127.254 315.613 127.254 Z" fill="#ffffff" fill-opacity="1" stroke="none"/>
 <path id="path-10" d="M329.266 112.373 C329.266 103.271 335.907 96.815 345.008 96.815 351.096 96.815 354.785 99.459 356.753 102.165 L351.649 106.962 C350.235 104.871 348.082 103.763 345.377 103.763 340.641 103.763 337.321 107.207 337.321 112.373 337.321 117.538 340.641 121.043 345.377 121.043 348.082 121.043 350.235 119.813 351.649 117.784 L356.753 122.581 C354.785 125.286 351.096 127.992 345.008 127.992 335.907 127.992 329.266 121.535 329.266 112.373 Z" fill="#ffffff" fill-opacity="1" stroke="none"/>
 <path id="path-11" d="M376.926 89.681 C376.926 87.099 379.017 85.07 381.538 85.07 384.121 85.07 386.212 87.099 386.212 89.681 386.212 92.264 384.121 94.355 381.538 94.355 379.017 94.355 376.926 92.264 376.926 89.681 Z M377.664 127.254 L377.664 97.552 385.474 97.552 385.474 127.254 377.664 127.254 Z" fill="#ffffff" fill-opacity="1" stroke="none"/>
 <path id="path-12" d="M413.271 127.254 L413.271 109.298 C413.271 105.177 411.119 103.763 407.798 103.763 404.723 103.763 402.386 105.485 401.034 107.207 L401.034 127.254 393.224 127.254 393.224 97.552 401.034 97.552 401.034 101.365 C402.94 99.152 406.629 96.815 411.426 96.815 418.005 96.815 421.142 100.505 421.142 106.285 L421.142 127.254 413.271 127.254 Z" fill="#ffffff" fill-opacity="1" stroke="none"/>
 <path id="path-13" d="M426.925 112.373 C426.925 103.271 433.567 96.815 442.667 96.815 448.755 96.815 452.445 99.459 454.412 102.165 L449.309 106.962 C447.894 104.871 445.742 103.763 443.036 103.763 438.301 103.763 434.981 107.207 434.981 112.373 434.981 117.538 438.301 121.043 443.036 121.043 445.742 121.043 447.894 119.813 449.309 117.784 L454.412 122.581 C452.445 125.286 448.755 127.992 442.667 127.992 433.567 127.992 426.925 121.535 426.925 112.373 Z" fill="#ffffff" fill-opacity="1" stroke="none"/>
 <path id="path-14" d="M457.614 112.373 C457.614 103.948 463.517 96.815 473.294 96.815 483.133 96.815 489.036 103.948 489.036 112.373 489.036 120.798 483.133 127.992 473.294 127.992 463.517 127.992 457.614 120.798 457.614 112.373 Z M480.919 112.373 C480.919 107.76 478.214 103.763 473.294 103.763 468.436 103.763 465.731 107.76 465.731 112.373 465.731 117.046 468.436 121.043 473.294 121.043 478.214 121.043 480.919 117.046 480.919 112.373 Z" fill="#ffffff" fill-opacity="1" stroke="none"/>
 <path id="path-15" d="M531.716 127.254 L531.716 108.499 C531.716 105.731 530.487 103.763 527.289 103.763 524.522 103.763 522.246 105.608 521.14 107.207 L521.14 127.254 513.269 127.254 513.269 108.499 C513.269 105.731 512.038 103.763 508.841 103.763 506.135 103.763 503.86 105.608 502.692 107.207 L502.692 127.254 494.882 127.254 494.882 97.552 502.692 97.552 502.692 101.365 C503.983 99.643 507.857 96.815 512.408 96.815 516.774 96.815 519.602 98.844 520.648 102.165 522.37 99.52 526.305 96.815 530.856 96.815 536.328 96.815 539.587 99.705 539.587 105.793 L539.587 127.254 531.716 127.254 Z" fill="#ffffff" fill-opacity="1" stroke="none"/>
 <path id="path-16" d="M545.435 112.373 C545.435 103.763 551.83 96.815 560.808 96.815 569.725 96.815 575.69 103.456 575.69 113.11 L575.69 114.956 553.614 114.956 C554.167 118.584 557.119 121.596 562.161 121.596 564.682 121.596 568.125 120.552 570.032 118.707 L573.537 123.872 C570.585 126.578 565.912 127.992 561.3 127.992 552.261 127.992 545.435 121.904 545.435 112.373 Z M560.808 103.21 C555.951 103.21 553.86 106.593 553.552 109.544 L568.187 109.544 C567.942 106.716 565.974 103.21 560.808 103.21 Z" fill="#ffffff" fill-opacity="1" stroke="none"/>
</svg>
