<?xml version="1.0" encoding="UTF-8"?>
<svg width="742px" height="152px" viewBox="0 0 742 152" xmlns="http://www.w3.org/2000/svg" xmlns:xlink="http://www.w3.org/1999/xlink" version="1.1">
 <!-- Generated by Pixelmator Pro 1.3.4 -->
 <path id="path" d="M151.559 76.22 C151.559 118.072 117.631 152 75.78 152 33.928 152 0 118.072 0 76.22 0 34.369 33.928 0.441 75.78 0.441 117.631 0.441 151.559 34.369 151.559 76.22 Z" fill="#caa54f" fill-opacity="1" stroke="none"/>
 <path id="path-1" d="M186.539 2.885 L579.559 2.885 579.559 86.238 454.091 86.238 454.091 149.556 186.539 149.556 Z" fill="#000000" fill-opacity="1" stroke="none"/>
 <defs>
  <text id="string" transform="matrix(1.0 0.0 0.0 1.0 286.04098510742 34.75367741698)">
   <tspan x="6.9296875" y="28.0" font-family="Helvetica, Helvetica" font-size="36" text-decoration="none">T</tspan>
   <tspan x="24.9296875" y="28.0" font-family="Helvetica, Helvetica" font-size="36" text-decoration="none">o</tspan>
   <tspan x="44.951171875" y="28.0" font-family="Helvetica, Helvetica" font-size="36" text-decoration="none">n</tspan>
   <tspan x="64.97265625" y="28.0" font-family="Helvetica, Helvetica" font-size="36" text-decoration="none"> </tspan>
   <tspan x="74.974609375" y="28.0" font-family="Helvetica, Helvetica" font-size="36" text-decoration="none">r</tspan>
   <tspan x="86.962890625" y="28.0" font-family="Helvetica, Helvetica" font-size="36" text-decoration="none">e</tspan>
   <tspan x="106.984375" y="28.0" font-family="Helvetica, Helvetica" font-size="36" text-decoration="none">v</tspan>
   <tspan x="124.984375" y="28.0" font-family="Helvetica, Helvetica" font-size="36" text-decoration="none">e</tspan>
   <tspan x="145.005859375" y="28.0" font-family="Helvetica, Helvetica" font-size="36" text-decoration="none">n</tspan>
   <tspan x="165.02734375" y="28.0" font-family="Helvetica, Helvetica" font-size="36" text-decoration="none">u</tspan>
   <tspan x="185.048828125" y="28.0" font-family="Helvetica, Helvetica" font-size="36" text-decoration="none">e</tspan>
   <tspan x="205.0703125" y="28.0" font-family="Helvetica, Helvetica" font-size="36" text-decoration="none"> </tspan>
  </text>
 </defs>
 <use id="ton-revenue-" xlink:href="#string" fill="#000000" fill-opacity="1" stroke="none"/>
 <defs>
  <text id="string-1" transform="matrix(1.0 0.0 0.0 1.0 290.52536010742 99.25367741698)">
   <tspan x="1.9453125" y="28.0" font-family="Helvetica, Helvetica" font-size="36" text-decoration="none">d</tspan>
   <tspan x="21.966796875" y="28.0" font-family="Helvetica, Helvetica" font-size="36" text-decoration="none">e</tspan>
   <tspan x="41.98828125" y="28.0" font-family="Helvetica, Helvetica" font-size="36" text-decoration="none"> </tspan>
   <tspan x="51.990234375" y="28.0" font-family="Helvetica, Helvetica" font-size="36" text-decoration="none">b</tspan>
   <tspan x="72.01171875" y="28.0" font-family="Helvetica, Helvetica" font-size="36" text-decoration="none">a</tspan>
   <tspan x="92.033203125" y="28.0" font-family="Helvetica, Helvetica" font-size="36" text-decoration="none">s</tspan>
   <tspan x="110.033203125" y="28.0" font-family="Helvetica, Helvetica" font-size="36" text-decoration="none">e</tspan>
  </text>
 </defs>
 <use id="de-base" xlink:href="#string-1" fill="#000000" fill-opacity="1" stroke="none"/>
 <path id="path-2" d="M225.499 62.754 L225.499 29.425 213.508 29.425 213.508 21.738 246.222 21.738 246.222 29.425 234.292 29.425 234.292 62.754 225.499 62.754 Z" fill="#ffffff" fill-opacity="1" stroke="none"/>
 <path id="path-3" d="M243.704 47.873 C243.704 39.448 249.607 32.315 259.385 32.315 269.224 32.315 275.127 39.448 275.127 47.873 275.127 56.298 269.224 63.492 259.385 63.492 249.607 63.492 243.704 56.298 243.704 47.873 Z M267.01 47.873 C267.01 43.26 264.304 39.263 259.385 39.263 254.527 39.263 251.821 43.26 251.821 47.873 251.821 52.546 254.527 56.543 259.385 56.543 264.304 56.543 267.01 52.546 267.01 47.873 Z" fill="#ffffff" fill-opacity="1" stroke="none"/>
 <path id="path-4" d="M301.019 62.754 L301.019 44.798 C301.019 40.677 298.867 39.263 295.546 39.263 292.472 39.263 290.135 40.985 288.782 42.707 L288.782 62.754 280.973 62.754 280.973 33.052 288.782 33.052 288.782 36.865 C290.688 34.652 294.378 32.315 299.175 32.315 305.754 32.315 308.891 36.005 308.891 41.785 L308.891 62.754 301.019 62.754 Z" fill="#ffffff" fill-opacity="1" stroke="none"/>
 <path id="path-5" d="M332.386 62.754 L332.386 33.052 340.195 33.052 340.195 37.05 C342.348 34.468 345.975 32.315 349.665 32.315 L349.665 39.94 C349.112 39.817 348.435 39.756 347.513 39.756 344.93 39.756 341.487 41.231 340.195 43.137 L340.195 62.754 332.386 62.754 Z" fill="#ffffff" fill-opacity="1" stroke="none"/>
 <path id="path-6" d="M352.619 47.873 C352.619 39.263 359.014 32.315 367.992 32.315 376.909 32.315 382.873 38.956 382.873 48.61 L382.873 50.456 360.797 50.456 C361.35 54.084 364.302 57.096 369.344 57.096 371.866 57.096 375.309 56.052 377.215 54.207 L380.721 59.372 C377.769 62.078 373.096 63.492 368.484 63.492 359.444 63.492 352.619 57.404 352.619 47.873 Z M367.992 38.71 C363.134 38.71 361.043 42.093 360.736 45.044 L375.37 45.044 C375.125 42.216 373.158 38.71 367.992 38.71 Z" fill="#ffffff" fill-opacity="1" stroke="none"/>
 <path id="path-7" d="M396.22 62.754 L384.29 33.052 392.654 33.052 400.402 53.715 408.211 33.052 416.575 33.052 404.645 62.754 396.22 62.754 Z" fill="#ffffff" fill-opacity="1" stroke="none"/>
 <path id="path-8" d="M418.176 47.873 C418.176 39.263 424.572 32.315 433.549 32.315 442.466 32.315 448.431 38.956 448.431 48.61 L448.431 50.456 426.355 50.456 C426.909 54.084 429.86 57.096 434.903 57.096 437.423 57.096 440.867 56.052 442.774 54.207 L446.279 59.372 C443.327 62.078 438.654 63.492 434.041 63.492 425.002 63.492 418.176 57.404 418.176 47.873 Z M433.549 38.71 C428.692 38.71 426.601 42.093 426.293 45.044 L440.928 45.044 C440.683 42.216 438.715 38.71 433.549 38.71 Z" fill="#ffffff" fill-opacity="1" stroke="none"/>
 <path id="path-9" d="M474.138 62.754 L474.138 44.798 C474.138 40.677 471.986 39.263 468.665 39.263 465.59 39.263 463.253 40.985 461.901 42.707 L461.901 62.754 454.091 62.754 454.091 33.052 461.901 33.052 461.901 36.865 C463.807 34.652 467.496 32.315 472.293 32.315 478.872 32.315 482.009 36.005 482.009 41.785 L482.009 62.754 474.138 62.754 Z" fill="#ffffff" fill-opacity="1" stroke="none"/>
 <path id="path-10" d="M509.746 62.754 L509.746 59.003 C507.717 61.217 504.151 63.492 499.292 63.492 492.774 63.492 489.7 59.926 489.7 54.145 L489.7 33.052 497.509 33.052 497.509 51.07 C497.509 55.19 499.661 56.543 502.982 56.543 505.995 56.543 508.394 54.883 509.746 53.161 L509.746 33.052 517.556 33.052 517.556 62.754 509.746 62.754 Z" fill="#ffffff" fill-opacity="1" stroke="none"/>
 <path id="path-11" d="M523.402 47.873 C523.402 39.263 529.797 32.315 538.775 32.315 547.692 32.315 553.657 38.956 553.657 48.61 L553.657 50.456 531.58 50.456 C532.134 54.084 535.085 57.096 540.127 57.096 542.649 57.096 546.092 56.052 547.998 54.207 L551.504 59.372 C548.552 62.078 543.879 63.492 539.267 63.492 530.228 63.492 523.402 57.404 523.402 47.873 Z M538.775 38.71 C533.917 38.71 531.827 42.093 531.519 45.044 L546.154 45.044 C545.909 42.216 543.941 38.71 538.775 38.71 Z" fill="#ffffff" fill-opacity="1" stroke="none"/>
 <path id="path-12" d="M235.635 127.254 L235.635 123.441 C233.299 126.393 230.101 127.992 226.473 127.992 219.032 127.992 213.313 122.335 213.313 112.373 213.313 102.719 218.909 96.815 226.473 96.815 229.978 96.815 233.299 98.291 235.635 101.365 L235.635 86.238 243.506 86.238 243.506 127.254 235.635 127.254 Z M235.635 117.661 L235.635 107.145 C234.344 105.177 231.515 103.763 228.932 103.763 224.444 103.763 221.369 107.268 221.369 112.373 221.369 117.538 224.444 121.043 228.932 121.043 231.515 121.043 234.344 119.629 235.635 117.661 Z" fill="#ffffff" fill-opacity="1" stroke="none"/>
 <path id="path-13" d="M249.352 112.373 C249.352 103.763 255.747 96.815 264.725 96.815 273.642 96.815 279.607 103.456 279.607 113.11 L279.607 114.956 257.531 114.956 C258.084 118.584 261.036 121.596 266.078 121.596 268.599 121.596 272.043 120.552 273.95 118.707 L277.454 123.872 C274.503 126.578 269.829 127.992 265.218 127.992 256.178 127.992 249.352 121.904 249.352 112.373 Z M264.725 103.21 C259.868 103.21 257.777 106.593 257.47 109.544 L272.105 109.544 C271.859 106.716 269.891 103.21 264.725 103.21 Z" fill="#ffffff" fill-opacity="1" stroke="none"/>
 <path id="path-14" d="M301.073 127.254 L301.073 86.238 308.882 86.238 308.882 101.365 C311.219 98.291 314.539 96.815 318.045 96.815 325.608 96.815 331.204 102.719 331.204 112.373 331.204 122.335 325.547 127.992 318.045 127.992 314.478 127.992 311.219 126.393 308.882 123.441 L308.882 127.254 301.073 127.254 Z M315.646 121.043 C320.135 121.043 323.149 117.538 323.149 112.373 323.149 107.268 320.135 103.763 315.646 103.763 313.064 103.763 310.235 105.239 308.882 107.207 L308.882 117.722 C310.235 119.629 313.064 121.043 315.646 121.043 Z" fill="#ffffff" fill-opacity="1" stroke="none"/>
 <path id="path-15" d="M354.944 127.254 L354.944 124.118 C352.915 126.578 349.41 127.992 345.536 127.992 340.801 127.992 335.266 124.795 335.266 118.153 335.266 111.142 340.801 108.56 345.536 108.56 349.533 108.56 352.976 109.851 354.944 112.188 L354.944 108.437 C354.944 105.424 352.362 103.456 348.426 103.456 345.29 103.456 342.338 104.686 339.878 106.962 L336.804 101.488 C340.432 98.229 345.105 96.815 349.779 96.815 356.604 96.815 362.815 99.52 362.815 108.068 L362.815 127.254 354.944 127.254 Z M354.944 120.121 L354.944 116.431 C353.653 114.71 351.193 113.787 348.672 113.787 345.597 113.787 343.076 115.447 343.076 118.276 343.076 121.104 345.597 122.704 348.672 122.704 351.193 122.704 353.653 121.843 354.944 120.121 Z" fill="#ffffff" fill-opacity="1" stroke="none"/>
 <path id="path-16" d="M367.923 123.38 L371.306 117.722 C373.52 119.813 377.885 121.843 381.575 121.843 384.957 121.843 386.556 120.552 386.556 118.707 386.556 113.848 368.969 117.845 368.969 106.162 368.969 101.181 373.274 96.815 381.145 96.815 386.125 96.815 390.122 98.537 393.075 100.874 L389.938 106.408 C388.155 104.563 384.773 102.965 381.145 102.965 378.316 102.965 376.471 104.194 376.471 105.854 376.471 110.22 394.12 106.531 394.12 118.522 394.12 123.995 389.446 127.992 381.206 127.992 376.04 127.992 371.06 126.27 367.923 123.38 Z" fill="#ffffff" fill-opacity="1" stroke="none"/>
 <path id="path-17" d="M397.934 112.373 C397.934 103.763 404.329 96.815 413.307 96.815 422.224 96.815 428.189 103.456 428.189 113.11 L428.189 114.956 406.113 114.956 C406.666 118.584 409.618 121.596 414.661 121.596 417.181 121.596 420.624 120.552 422.532 118.707 L426.036 123.872 C423.084 126.578 418.411 127.992 413.799 127.992 404.76 127.992 397.934 121.904 397.934 112.373 Z M413.307 103.21 C408.45 103.21 406.359 106.593 406.051 109.544 L420.686 109.544 C420.441 106.716 418.473 103.21 413.307 103.21 Z" fill="#ffffff" fill-opacity="1" stroke="none"/>
</svg>
